<svg width="98" height="99" viewBox="0 0 98 99" fill="none" xmlns="http://www.w3.org/2000/svg">
<path d="M74.8981 72.4037C87.5627 58.1524 86.3265 36.3705 72.1371 23.7526C57.9477 11.1347 36.1782 12.4588 23.5137 26.7101C10.8492 40.9614 12.0853 62.7433 26.2747 75.3612C40.4642 87.9791 62.2336 86.655 74.8981 72.4037Z" fill="#392147"/>
<path d="M37.3537 47.2918L32.3951 50.1035C31.9567 50.3521 31.635 50.7646 31.5008 51.2504C31.3666 51.7361 31.4309 52.2553 31.6794 52.6936L33.5539 55.9994C33.8025 56.4378 34.215 56.7594 34.7008 56.8937C35.1865 57.0279 35.7057 56.9636 36.144 56.715L39.4498 54.8405C39.8882 54.592 40.4073 54.5277 40.8931 54.6619C41.3788 54.7961 41.7914 55.1178 42.0399 55.5562L43.9144 58.8619C44.163 59.3003 44.2272 59.8195 44.093 60.3052C43.9588 60.791 43.6372 61.2035 43.1988 61.4521L38.2401 64.2638M56.4218 53.9541L49.8103 57.7031L42.3123 44.4801L48.9238 40.7311M47.7142 50.1543L51.0199 48.2798M54.8197 39.5722C54.5712 39.1338 54.5069 38.6147 54.6411 38.1289C54.7753 37.6432 55.097 37.2307 55.5354 36.9821L58.8411 35.1076C59.2795 34.859 59.7986 34.7948 60.2844 34.929C60.7701 35.0632 61.1827 35.3849 61.4312 35.8232L67.0547 45.7405C67.3033 46.1789 67.3675 46.698 67.2333 47.1838C67.0991 47.6695 66.7774 48.0821 66.3391 48.3306L63.0333 50.2051C62.595 50.4537 62.0758 50.5179 61.59 50.3837C61.1043 50.2495 60.6918 49.9279 60.4432 49.4895L54.8197 39.5722Z" stroke="white" stroke-width="4" stroke-linecap="round" stroke-linejoin="round"/>
</svg>
