<svg width="285" height="654" viewBox="0 0 285 654" fill="none" xmlns="http://www.w3.org/2000/svg">
<path d="M74.7355 120.57C97.0752 111.102 107.51 85.3169 98.0422 62.9771C88.5745 40.6374 62.7894 30.2026 40.4497 39.6703C18.1099 49.1381 7.67514 74.9232 17.1429 97.2629C26.6107 119.603 52.3957 130.037 74.7355 120.57Z" fill="white"/>
<path d="M101.542 80.1405C101.542 80.1405 101.504 79.8998 101.47 79.4296C101.436 78.9302 101.389 78.2374 101.328 77.3458C101.298 76.8853 101.268 76.3734 101.233 75.8114C101.173 75.2494 101.051 74.6401 100.951 73.9779C100.739 72.6536 100.539 71.1178 100.031 69.4485C99.2535 66.0584 97.6635 62.0534 95.1581 57.8092C92.6333 53.583 88.9914 49.1691 84.0349 45.4229C79.0937 41.7128 72.8588 38.555 65.6613 37.2808C63.8571 37.0262 62.0347 36.6548 60.1442 36.6451C59.2038 36.6131 58.2565 36.5212 57.3008 36.5366C56.3465 36.5866 55.3839 36.6367 54.4143 36.6868C53.9302 36.7202 53.4419 36.7174 52.9578 36.7814L51.5041 37.0053C50.5331 37.1667 49.5468 37.2808 48.5703 37.4825C46.6464 38.0069 44.6516 38.3978 42.7569 39.1908C40.801 39.8168 38.962 40.7836 37.0715 41.6906C36.1506 42.19 35.2686 42.7714 34.3575 43.3126C33.4296 43.8301 32.5796 44.4741 31.7269 45.1252C29.9546 46.341 28.4063 47.8629 26.7829 49.3277C25.3167 50.9511 23.7768 52.5383 22.5137 54.3801C19.9193 57.9817 17.656 61.9839 16.2843 66.3853C14.864 70.7589 14.0989 75.4052 14.0363 80.1321C14.0989 84.8618 14.8612 89.5095 16.2815 93.8845C17.6518 98.2873 19.9165 102.291 22.5109 105.894C23.7754 107.736 25.3153 109.324 26.7815 110.948C28.4049 112.414 29.9533 113.936 31.7255 115.152C32.5783 115.803 33.4268 116.448 34.3561 116.964C35.2672 117.505 36.1506 118.087 37.0701 118.586C38.9606 119.493 40.7996 120.46 42.7555 121.087C44.6502 121.88 46.645 122.271 48.5689 122.796C49.5454 122.997 50.5317 123.111 51.5027 123.273L52.9578 123.497C53.4419 123.561 53.9316 123.558 54.4157 123.591C55.3853 123.641 56.3479 123.692 57.3022 123.742C58.2579 123.757 59.2052 123.665 60.1456 123.633C62.0361 123.623 63.8585 123.252 65.6627 122.997C72.8602 121.722 79.0951 118.565 84.0363 114.854C88.9928 111.108 92.6333 106.694 95.1581 102.468C97.6635 98.2233 99.2535 94.2184 100.031 90.8297C100.539 89.1603 100.739 87.6246 100.951 86.3016C101.051 85.6395 101.172 85.0302 101.232 84.4682C101.266 83.9062 101.298 83.3942 101.326 82.9338C101.386 82.0407 101.433 81.3479 101.468 80.8499C101.504 80.3811 101.542 80.1405 101.542 80.1405C101.542 80.1405 101.554 80.3811 101.543 80.8527C101.527 81.3535 101.503 82.0491 101.474 82.9449C101.456 83.4082 101.436 83.9229 101.414 84.4877C101.365 85.0538 101.254 85.6659 101.165 86.3336C100.976 87.6677 100.795 89.2146 100.305 90.9006C99.5651 94.3227 98.0029 98.3736 95.5073 102.678C92.9922 106.962 89.3419 111.448 84.3479 115.264C79.3705 119.045 73.0675 122.271 65.774 123.591C63.9461 123.857 62.0973 124.238 60.1818 124.255C59.2289 124.291 58.2662 124.386 57.298 124.373C56.3284 124.326 55.3533 124.277 54.3698 124.23C53.8787 124.197 53.3821 124.201 52.891 124.138L51.4151 123.915C50.4302 123.756 49.4272 123.641 48.4367 123.438C46.4808 122.913 44.4568 122.517 42.5302 121.719C40.5423 121.086 38.6727 120.109 36.7502 119.191C35.8139 118.686 34.9167 118.098 33.9902 117.548C33.047 117.024 32.1818 116.37 31.3151 115.711C29.5137 114.477 27.9362 112.934 26.2863 111.447C24.7937 109.801 23.2273 108.188 21.9405 106.318C19.3002 102.66 16.9952 98.5906 15.5999 94.1154C14.1532 89.6681 13.3769 84.9425 13.3143 80.1363C13.3769 75.3315 14.1559 70.6073 15.6027 66.1613C16.9993 61.6876 19.303 57.62 21.9433 53.9628C23.2301 52.0932 24.7964 50.4809 26.2891 48.8352C27.9389 47.3482 29.5164 45.8054 31.3179 44.5715C32.1845 43.9121 33.0484 43.2597 33.993 42.7353C34.9194 42.1872 35.8167 41.5988 36.7529 41.0938C38.674 40.1757 40.5436 39.1991 42.5315 38.5662C44.4582 37.7677 46.4822 37.3726 48.4381 36.8468C49.4286 36.6437 50.4316 36.5296 51.4165 36.3696L52.8924 36.147C53.3835 36.0831 53.8801 36.0872 54.3712 36.0538C55.3547 36.0052 56.3312 35.9579 57.2994 35.9106C58.2676 35.898 59.2288 35.9926 60.1831 36.0288C62.0987 36.0455 63.9475 36.4267 65.774 36.6924C73.0661 38.0111 79.3691 41.2371 84.3479 45.0167C89.3419 48.8325 92.9936 53.3187 95.5087 57.6033C98.0043 61.9074 99.5665 65.9582 100.308 69.3803C100.798 71.0663 100.978 72.6146 101.168 73.9487C101.257 74.6164 101.367 75.2285 101.417 75.7947C101.439 76.3595 101.46 76.8742 101.478 77.3374C101.507 78.2333 101.531 78.9288 101.547 79.4296C101.554 79.8984 101.542 80.1405 101.542 80.1405Z" fill="#263238"/>
<path d="M105.02 116.622C107.659 116.622 109.798 114.483 109.798 111.843C109.798 109.204 107.659 107.065 105.02 107.065C102.381 107.065 100.241 109.204 100.241 111.843C100.241 114.483 102.381 116.622 105.02 116.622Z" fill="white"/>
<path d="M109.797 111.843C109.733 111.845 109.724 111.418 109.51 110.711C109.299 110.017 108.805 109.011 107.755 108.249C106.739 107.484 105.089 107.069 103.505 107.669C101.934 108.221 100.586 109.893 100.603 111.842C100.585 113.791 101.934 115.465 103.505 116.017C105.089 116.618 106.738 116.202 107.755 115.437C108.805 114.674 109.299 113.669 109.51 112.974C109.724 112.269 109.733 111.842 109.797 111.843C109.831 111.841 109.923 112.272 109.784 113.044C109.645 113.801 109.192 114.939 108.065 115.844C106.977 116.75 105.116 117.298 103.277 116.644C101.454 116.049 99.8558 114.114 99.8781 111.842C99.8572 109.57 101.456 107.637 103.277 107.041C105.116 106.388 106.977 106.936 108.063 107.841C109.19 108.747 109.644 109.886 109.783 110.642C109.923 111.416 109.831 111.846 109.797 111.843Z" fill="#263238"/>
<path d="M57.6069 94.0292H40.897C39.563 94.0292 38.7297 92.5852 39.396 91.4306L47.7509 76.959L56.1058 62.4888C56.7722 61.3342 58.4401 61.3342 59.1065 62.4888L67.4614 76.959L75.8163 91.4306C76.4826 92.5852 75.6494 94.0292 74.3167 94.0292H57.6069Z" fill="#F03561"/>
<path d="M171.592 62.2429C185.681 55.9712 192.031 39.4956 185.775 25.4435C179.52 11.3914 163.028 5.08417 148.939 11.3559C134.85 17.6276 128.5 34.1032 134.756 48.1553C141.011 62.2074 157.503 68.5146 171.592 62.2429Z" fill="white"/>
<path d="M186.287 46.768C186.278 46.7638 186.315 46.615 186.397 46.327C186.492 46.0112 186.619 45.5911 186.778 45.0569C186.866 44.7759 186.962 44.4657 187.066 44.1249C187.157 43.7771 187.222 43.389 187.311 42.9745C187.484 42.1412 187.71 41.1869 187.787 40.0824C188.092 37.8983 188.053 35.1662 187.528 32.0877C186.987 29.0148 185.83 25.5788 183.743 22.2416C181.658 18.9294 178.684 15.6519 174.715 13.2704C170.764 10.9264 165.943 9.23202 160.737 9.2195C159.439 9.14716 158.133 9.30296 156.81 9.41147C155.507 9.64657 154.166 9.80932 152.873 10.2336C151.55 10.5522 150.29 11.1017 148.999 11.5997C147.765 12.227 146.495 12.8169 145.332 13.6195C142.984 15.1623 140.739 17.0152 138.933 19.3063C137.104 21.5697 135.6 24.1432 134.491 26.9226C133.458 29.7326 132.855 32.6511 132.704 35.5585C132.516 38.4715 132.949 41.3497 133.665 44.0665C133.995 45.4423 134.546 46.729 135.044 48.0214C135.671 49.2553 136.241 50.5059 137.013 51.6271C137.691 52.8053 138.581 53.8236 139.394 54.8697C140.306 55.8338 141.173 56.8228 142.187 57.6366C146.068 61.1046 150.789 63.0661 155.295 63.9619C159.84 64.8411 164.243 64.3904 168.007 63.3179C171.789 62.2286 174.946 60.4452 177.401 58.52C179.848 56.5794 181.701 54.5734 182.935 52.7455C183.617 51.8733 184.085 51.0108 184.514 50.2763C184.724 49.9077 184.935 49.5752 185.099 49.2567C185.248 48.9339 185.385 48.6376 185.507 48.3705C185.745 47.8656 185.931 47.4691 186.072 47.1714C186.207 46.9015 186.278 46.7652 186.287 46.768C186.297 46.7722 186.246 46.9154 186.134 47.1937C186.008 47.4997 185.839 47.9059 185.625 48.422C185.51 48.6946 185.382 48.9951 185.243 49.3248C185.086 49.6489 184.882 49.9884 184.679 50.3654C184.266 51.1152 183.81 51.9943 183.138 52.8846C181.925 54.7501 180.079 56.8034 177.622 58.794C175.157 60.7694 171.97 62.607 168.136 63.7407C164.321 64.8578 159.841 65.3433 155.208 64.4697C150.614 63.5808 145.793 61.5999 141.817 58.0706C140.779 57.2429 139.889 56.2372 138.957 55.2523C138.122 54.1881 137.214 53.1489 136.517 51.947C135.727 50.8035 135.14 49.5279 134.498 48.2676C133.985 46.9502 133.422 45.6342 133.082 44.2292C132.345 41.4526 131.902 38.509 132.09 35.5307C132.243 32.5565 132.857 29.5699 133.914 26.6986C135.045 23.8566 136.585 21.2261 138.459 18.9127C140.309 16.5714 142.604 14.6782 145.007 13.1062C146.197 12.2883 147.495 11.6859 148.758 11.0488C150.077 10.541 151.367 9.98321 152.719 9.66048C154.039 9.23202 155.411 9.06648 156.742 8.83138C158.093 8.72288 159.427 8.56986 160.752 8.64637C166.066 8.67697 170.978 10.4228 174.99 12.8308C179.022 15.2777 182.031 18.6303 184.124 22.0106C186.219 25.416 187.363 28.9119 187.877 32.0293C188.375 35.1523 188.377 37.9136 188.033 40.113C187.939 41.2245 187.691 42.1829 187.498 43.0176C187.398 43.4335 187.322 43.8216 187.222 44.168C187.107 44.5061 187 44.8163 186.904 45.0959C186.719 45.6231 186.571 46.0377 186.461 46.3507C186.356 46.6303 186.299 46.7722 186.287 46.768Z" fill="#263238"/>
<path d="M165.112 79.1166C164.4 82.0198 161.27 83.511 158.595 82.3091C156.562 81.3966 155.422 79.0818 155.952 76.9186C156.664 74.0154 159.793 72.5228 162.469 73.7247C164.501 74.6386 165.643 76.952 165.112 79.1166Z" fill="white"/>
<path d="M164.93 79.7022C164.876 79.6841 165.024 79.2904 165.083 78.5615C165.139 77.8451 165.044 76.7391 164.344 75.6569C163.678 74.5843 162.296 73.6092 160.612 73.6008C158.956 73.5521 157.105 74.6261 156.427 76.4442C155.717 78.2499 156.376 80.2864 157.642 81.3576C158.901 82.4774 160.581 82.6736 161.793 82.3216C163.037 81.9836 163.846 81.224 164.282 80.6551C164.725 80.0722 164.877 79.6785 164.93 79.7022C164.956 79.7091 164.884 80.1362 164.481 80.7928C164.084 81.4355 163.265 82.3147 161.917 82.7431C160.604 83.1869 158.713 83.0325 157.265 81.7902C155.811 80.6092 155.031 78.2847 155.845 76.2203C156.618 74.142 158.751 72.9345 160.622 73.0263C162.527 73.0708 164.038 74.2171 164.718 75.4246C165.435 76.6445 165.457 77.8465 165.324 78.5893C165.186 79.3488 164.953 79.7147 164.93 79.7022Z" fill="#263238"/>
<path d="M152.77 32.1114H156.761C156.761 32.1114 156.761 28.7603 160.245 28.7005C162.053 28.6699 162.991 29.8537 163.372 30.7621C163.814 31.8165 163.681 33.017 163.088 33.995C162.411 35.1106 160.928 36.1261 158.237 35.6518V44.6508H162.184V39.3785C162.184 39.3785 167.719 37.9471 167.719 31.8471C167.719 26.0101 162.486 24.6552 160.245 24.6552C158.532 24.6552 152.695 25.0697 152.77 32.1114Z" fill="#263238"/>
<path d="M162.231 46.5037H158.226V50.2444H162.231V46.5037Z" fill="#263238"/>
<path d="M269.186 150.75C277.673 142.907 278.179 129.651 270.316 121.142C262.452 112.634 249.198 112.095 240.711 119.938C232.224 127.781 231.718 141.037 239.581 149.546C247.444 158.054 260.699 158.593 269.186 150.75Z" fill="white"/>
<path d="M254.128 156.271C254.128 156.263 254.244 156.254 254.469 156.243C254.717 156.235 255.047 156.224 255.465 156.208C255.686 156.203 255.93 156.196 256.198 156.189C256.467 156.169 256.759 156.122 257.076 156.086C257.711 156.008 258.445 155.94 259.249 155.727C260.877 155.417 262.812 154.731 264.876 153.615C266.932 152.49 269.098 150.837 270.97 148.549C272.825 146.266 274.44 143.36 275.179 139.962C275.894 136.586 275.938 132.746 274.693 129.039C274.431 128.097 274.006 127.205 273.609 126.291C273.128 125.421 272.688 124.505 272.076 123.689C271.531 122.823 270.837 122.06 270.171 121.261C269.426 120.535 268.7 119.773 267.849 119.138C266.185 117.839 264.325 116.689 262.261 115.956C260.209 115.199 258.015 114.749 255.77 114.631C253.522 114.573 251.299 114.848 249.193 115.441C247.076 116.01 245.131 117.011 243.37 118.176C242.471 118.742 241.686 119.444 240.888 120.111C240.162 120.855 239.408 121.562 238.797 122.381C238.121 123.148 237.612 124.025 237.064 124.856C236.598 125.738 236.103 126.593 235.769 127.511C234.236 131.11 233.978 134.941 234.428 138.363C234.898 141.809 236.279 144.833 237.95 147.255C239.637 149.684 241.667 151.501 243.628 152.783C245.6 154.056 247.473 154.892 249.072 155.329C249.856 155.605 250.583 155.73 251.209 155.858C251.521 155.919 251.809 155.989 252.077 156.029C252.342 156.057 252.586 156.083 252.805 156.105C253.221 156.153 253.548 156.19 253.795 156.218C254.014 156.245 254.128 156.263 254.128 156.271C254.128 156.279 254.013 156.277 253.789 156.264C253.541 156.247 253.212 156.225 252.793 156.197C252.57 156.181 252.326 156.162 252.058 156.143C251.79 156.11 251.499 156.047 251.182 155.993C250.549 155.879 249.813 155.766 249.018 155.503C247.398 155.089 245.493 154.271 243.482 153.002C241.482 151.723 239.406 149.9 237.676 147.444C235.961 144.997 234.536 141.927 234.041 138.419C233.567 134.936 233.814 131.027 235.367 127.347C235.706 126.41 236.207 125.533 236.683 124.632C237.239 123.782 237.759 122.885 238.447 122.099C239.07 121.261 239.836 120.535 240.578 119.776C241.392 119.092 242.193 118.375 243.11 117.795C244.907 116.601 246.895 115.576 249.061 114.993C251.214 114.385 253.487 114.101 255.785 114.162C258.081 114.282 260.324 114.744 262.421 115.519C264.532 116.271 266.434 117.448 268.131 118.78C269.001 119.429 269.742 120.208 270.5 120.954C271.18 121.77 271.887 122.554 272.442 123.437C273.065 124.273 273.513 125.209 274.002 126.099C274.404 127.034 274.835 127.947 275.101 128.908C276.36 132.697 276.301 136.613 275.554 140.048C274.785 143.506 273.124 146.455 271.222 148.76C269.304 151.072 267.092 152.729 264.998 153.846C262.896 154.954 260.932 155.62 259.284 155.906C258.47 156.107 257.729 156.162 257.087 156.225C256.767 156.254 256.472 156.295 256.201 156.306C255.933 156.304 255.686 156.304 255.464 156.303C255.044 156.297 254.713 156.293 254.465 156.29C254.244 156.285 254.128 156.278 254.128 156.271Z" fill="#263238"/>
<path d="M229.112 154.602C226.874 154.795 225.059 152.928 225.269 150.734C225.429 149.068 226.8 147.698 228.468 147.554C230.707 147.361 232.522 149.228 232.312 151.422C232.152 153.088 230.78 154.458 229.112 154.602Z" fill="white"/>
<path d="M228.652 154.613C228.652 154.57 228.968 154.581 229.5 154.447C230.024 154.315 230.787 153.98 231.388 153.222C231.991 152.489 232.352 151.271 231.952 150.069C231.587 148.879 230.377 147.821 228.92 147.777C227.464 147.706 226.174 148.667 225.717 149.825C225.223 150.992 225.489 152.234 226.031 153.012C226.571 153.814 227.307 154.208 227.817 154.381C228.339 154.557 228.655 154.57 228.652 154.613C228.653 154.634 228.332 154.685 227.767 154.556C227.215 154.428 226.391 154.058 225.761 153.202C225.13 152.375 224.783 150.992 225.317 149.662C225.808 148.343 227.273 147.227 228.938 147.31C230.605 147.36 231.977 148.585 232.362 149.939C232.79 151.306 232.338 152.657 231.643 153.432C230.947 154.236 230.097 154.54 229.537 154.625C228.965 154.71 228.649 154.634 228.652 154.613Z" fill="#263238"/>
<path d="M249.102 132.201L252.093 131.982C252.093 131.982 251.91 129.471 254.517 129.235C255.87 129.113 256.638 129.949 256.973 130.608C257.363 131.373 257.328 132.282 256.937 133.047C256.491 133.92 255.435 134.762 253.394 134.555L253.888 141.299L256.845 141.082L256.556 137.131C256.556 137.131 260.625 135.755 260.291 131.184C259.971 126.81 255.974 126.081 254.295 126.205C253.011 126.298 248.66 126.929 249.102 132.201Z" fill="#263238"/>
<path d="M256.963 142.456L253.962 142.676L254.167 145.478L257.168 145.259L256.963 142.456Z" fill="#263238"/>
<path d="M161.35 159.186C160.686 152.506 159.686 145.789 157.241 139.538C154.797 133.286 150.792 127.478 145.134 123.864L143.682 125.217C142.679 122.345 140.009 120.127 137.003 119.666C133.997 119.206 130.785 120.523 128.969 122.962C125.728 122.088 122.01 123.412 120.051 126.137C118.091 128.863 118.02 132.809 119.88 135.604C116.843 135.989 114.163 138.379 113.432 141.352C112.702 144.325 113.972 147.684 116.484 149.433C113.137 152.325 111.803 157.333 113.27 161.507C114.736 165.682 118.906 168.756 123.329 168.921C122.342 172.764 124.344 177.161 127.89 178.942C131.436 180.721 136.159 179.699 138.651 176.612C138.341 180.61 141.538 184.395 145.433 185.345C149.328 186.297 153.572 184.723 156.414 181.894C159.256 179.066 160.817 175.144 161.422 171.181C162.027 167.218 161.746 163.175 161.35 159.186Z" fill="#263238"/>
<path d="M143.366 129.589C139.479 130.848 138.683 133.994 137.877 136.618C136.139 142.263 138.094 150.618 141.253 155.609C144.412 160.601 147.877 163.138 153.723 163.982C153.913 155.021 154.102 146.058 154.293 137.097L143.366 129.589Z" fill="#F03561"/>
<path d="M141.172 145.024C138.518 141.577 138.894 136.163 141.998 133.115C140.297 130.977 140.908 127.68 142.637 125.564C144.366 123.448 146.935 122.235 149.416 121.089C150.778 114.835 157.799 110.435 164.021 111.938C167.262 107.174 174.169 106.426 179.701 108.038C181.053 108.432 182.403 108.941 183.811 108.935C184.843 108.931 185.853 108.649 186.875 108.511C192.504 107.754 198.092 111.716 200.287 116.955C200.637 117.792 200.927 118.676 201.482 119.393C202.212 120.335 203.319 120.889 204.264 121.616C206.305 123.19 207.6 125.689 207.707 128.263C207.799 130.448 207.103 132.769 208.024 134.754C208.486 135.748 209.319 136.553 209.678 137.589C210.719 140.592 207.39 143.662 208.007 146.78C208.134 147.416 208.421 148.008 208.596 148.633C208.956 149.908 208.834 151.315 208.258 152.51C207.814 153.432 207.098 154.277 207.036 155.298C206.991 156.072 207.335 156.811 207.491 157.572C207.871 159.433 203.855 166.611 202.247 167.623L154.183 168.053C150.545 167.311 147.584 164.016 147.233 160.319C147.175 159.705 147.165 159.038 146.785 158.551C146.461 158.137 145.937 157.948 145.473 157.699C142.378 156.038 142.005 151.788 142.331 148.291C142.377 147.801 142.427 147.299 142.304 146.823C142.126 146.133 141.609 145.591 141.172 145.024Z" fill="#263238"/>
<path d="M154.943 145.093C154.801 136.586 160.136 126.812 168.585 122.653C173.912 120.031 178.067 120.014 180.867 119.687C187.141 118.955 192.203 122.064 192.203 122.064C194.852 122.686 204.56 131.575 205.065 141.221C205.626 151.937 205.886 165.042 204.532 173.02C201.809 189.06 189.472 190.972 189.472 190.972C189.471 190.947 190.621 217.634 190.621 217.634L166.913 237.065L157.682 206.202L154.943 145.093Z" fill="#FFBF9D"/>
<path d="M189.471 190.972C189.471 190.972 178.583 191.557 167.942 185.005C167.942 185.005 173.55 196.391 189.646 195.059L189.471 190.972Z" fill="#FF9A6C"/>
<path d="M157.366 160.347C157.376 159.151 156.024 156.315 154.844 156.118C151.693 155.593 146.003 155.785 145.864 163.799C145.675 174.752 156.711 172.684 156.736 172.369C156.757 172.123 157.333 164.479 157.366 160.347Z" fill="#FFBF9D"/>
<path d="M153.784 168.314C153.737 168.278 153.59 168.445 153.266 168.587C152.949 168.724 152.407 168.815 151.839 168.591C150.689 168.146 149.747 166.293 149.727 164.317C149.716 163.32 149.942 162.374 150.309 161.594C150.657 160.798 151.185 160.247 151.77 160.154C152.351 160.03 152.757 160.386 152.887 160.695C153.028 161.004 152.955 161.222 153.012 161.242C153.042 161.271 153.25 161.064 153.169 160.609C153.127 160.39 153.003 160.129 152.749 159.915C152.49 159.696 152.106 159.581 151.699 159.617C150.853 159.661 150.079 160.425 149.676 161.281C149.227 162.14 148.95 163.202 148.961 164.323C148.993 166.532 150.086 168.616 151.662 169.101C152.429 169.316 153.076 169.094 153.412 168.841C153.76 168.58 153.821 168.335 153.784 168.314Z" fill="#FF9A6C"/>
<path d="M207.413 139.598C207.066 135.619 205.48 131.847 203.56 128.344C202.232 125.92 200.703 123.554 198.612 121.746C196.863 120.235 194.784 119.168 192.696 118.178C187.208 115.575 181.087 113.366 175.161 114.701C171.981 115.418 169.116 117.108 166.33 118.802C164.195 120.101 162.051 121.431 160.264 123.177C158.694 124.709 157.434 126.528 156.321 128.417C153.668 132.92 151.796 137.955 151.437 143.169C151.078 148.382 147.133 152.993 150.191 157.231C150.427 157.56 155.872 158.686 156.247 158.837C157.132 159.189 158.105 158.229 158.099 157.276C158.092 156.324 157.437 155.502 156.732 154.862C158.088 154.816 159.017 153.307 158.931 151.953C158.846 150.6 158.045 149.408 157.239 148.316C157.135 148.172 157.025 148.022 157.004 147.847C156.947 147.385 157.47 147.101 157.871 146.863C159.823 145.709 160.04 142.497 158.262 141.089C160.874 140.484 162.569 137.341 161.637 134.826C161.489 134.428 161.289 133.983 161.479 133.603C161.663 133.239 162.115 133.125 162.505 133.009C165.395 132.153 167.339 128.885 166.711 125.936C168.232 126.015 169.777 126.093 171.257 125.734C172.738 125.375 174.168 124.508 174.844 123.145C175.813 124.892 177.718 126.083 179.713 126.189C181.707 126.296 183.729 125.317 184.879 123.682C187.43 123.926 190.041 123.522 192.399 122.518C192.978 124.895 194.853 126.914 197.182 127.666C197.634 127.812 198.154 127.954 198.371 128.377C198.51 128.646 198.488 128.966 198.471 129.267C198.391 130.796 199.433 131.449 200.276 132.727C201.119 134.005 202.589 135.91 204.062 135.488C203.898 138.094 205.292 139.99 207.491 141.395L207.413 139.598Z" fill="#263238"/>
<path d="M209.68 137.589C209.68 137.589 209.574 137.135 209.099 136.408C208.871 136.041 208.547 135.614 208.241 135.068C207.943 134.522 207.707 133.827 207.646 133.016C207.565 132.207 207.639 131.3 207.718 130.307C207.796 129.318 207.879 128.214 207.661 127.053C207.452 125.897 206.997 124.696 206.252 123.589C205.879 123.035 205.435 122.507 204.918 122.027C204.404 121.541 203.801 121.132 203.198 120.725C202.6 120.313 201.994 119.871 201.547 119.274C201.098 118.677 200.824 117.944 200.527 117.202C199.932 115.706 199.064 114.239 197.904 112.944C196.751 111.649 195.347 110.475 193.687 109.642C192.872 109.195 191.974 108.895 191.06 108.628C190.129 108.418 189.168 108.254 188.183 108.277C187.692 108.27 187.199 108.334 186.706 108.382C186.214 108.454 185.73 108.553 185.246 108.635C184.277 108.818 183.297 108.838 182.318 108.612C181.339 108.411 180.38 108.049 179.37 107.788C178.367 107.502 177.324 107.331 176.27 107.212C175.214 107.095 174.138 107.093 173.059 107.155C171.979 107.235 170.901 107.424 169.84 107.719C167.739 108.341 165.693 109.5 164.294 111.311C164.156 111.491 164.018 111.67 163.883 111.847L164.058 111.779C160.75 110.987 157.287 111.851 154.61 113.604C151.916 115.352 149.91 118.062 149.261 121.057L149.349 120.949C148.019 121.565 146.705 122.184 145.492 122.944C144.281 123.7 143.17 124.607 142.332 125.722C141.503 126.84 140.996 128.159 140.874 129.491C140.749 130.819 141.076 132.192 141.89 133.204L141.901 133.021C140.324 134.576 139.517 136.653 139.332 138.624C139.144 140.605 139.543 142.537 140.425 144.077C140.625 144.474 140.898 144.819 141.143 145.168C141.407 145.503 141.677 145.815 141.889 146.151C142.101 146.488 142.242 146.85 142.27 147.229C142.303 147.608 142.26 147.989 142.229 148.366C142.101 149.877 142.122 151.279 142.311 152.525C142.502 153.769 142.853 154.859 143.363 155.698C143.861 156.545 144.49 157.126 145.052 157.49C145.614 157.868 146.113 158.017 146.39 158.222C146.677 158.411 146.777 158.565 146.787 158.556C146.787 158.556 146.699 158.391 146.415 158.187C146.141 157.966 145.642 157.802 145.099 157.42C144.553 157.05 143.947 156.473 143.469 155.636C142.979 154.807 142.645 153.73 142.469 152.5C142.293 151.269 142.284 149.879 142.421 148.381C142.455 148.007 142.503 147.616 142.47 147.21C142.444 146.801 142.288 146.393 142.067 146.04C141.845 145.684 141.571 145.364 141.314 145.033C141.076 144.689 140.813 144.354 140.621 143.966C139.771 142.463 139.392 140.576 139.582 138.645C139.771 136.724 140.567 134.708 142.094 133.213L142.183 133.126L142.107 133.029C141.347 132.077 141.039 130.784 141.162 129.512C141.281 128.238 141.774 126.967 142.573 125.895C143.381 124.824 144.465 123.94 145.656 123.199C146.849 122.455 148.153 121.843 149.483 121.23L149.554 121.196L149.57 121.12C150.205 118.218 152.158 115.578 154.79 113.874C157.403 112.164 160.781 111.328 163.982 112.096L164.086 112.121L164.157 112.028C164.288 111.856 164.422 111.684 164.554 111.51C165.902 109.763 167.883 108.637 169.933 108.03C170.969 107.742 172.025 107.555 173.083 107.476C174.141 107.415 175.198 107.415 176.236 107.529C177.272 107.646 178.299 107.811 179.285 108.091C180.277 108.344 181.244 108.708 182.253 108.914C182.756 109.02 183.27 109.085 183.784 109.085C184.3 109.085 184.805 109.017 185.296 108.932C185.789 108.849 186.27 108.749 186.749 108.678C187.229 108.632 187.706 108.568 188.183 108.573C189.139 108.547 190.076 108.707 190.983 108.909C191.876 109.168 192.754 109.458 193.552 109.894C195.179 110.703 196.56 111.852 197.695 113.12C198.839 114.388 199.696 115.821 200.287 117.292C200.586 118.027 200.868 118.781 201.348 119.414C201.828 120.047 202.46 120.499 203.063 120.911C203.674 121.32 204.261 121.714 204.763 122.184C205.27 122.65 205.707 123.163 206.074 123.702C206.81 124.78 207.263 125.952 207.476 127.082C207.699 128.214 207.628 129.299 207.558 130.29C207.49 131.282 207.423 132.2 207.515 133.023C207.587 133.847 207.84 134.559 208.153 135.111C208.472 135.662 208.804 136.081 209.041 136.44C209.284 136.795 209.442 137.083 209.536 137.282C209.635 137.483 209.671 137.592 209.68 137.589Z" fill="#455A64"/>
<path d="M169.183 109.572C169.2 109.597 169.474 109.408 170.008 109.152C170.541 108.9 171.352 108.586 172.402 108.475C173.443 108.358 174.734 108.457 175.998 109.028C177.254 109.596 178.474 110.627 179.252 112.022C179.476 112.423 179.667 112.85 179.786 113.266C179.902 113.68 179.916 114.12 179.697 114.419L179.427 114.789L179.87 114.668C181.087 114.334 182.336 114.576 183.254 115.098C184.189 115.618 184.776 116.422 185.096 117.14C185.42 117.866 185.495 118.513 185.509 118.948C185.52 119.388 185.484 119.629 185.509 119.631C185.519 119.633 185.536 119.574 185.561 119.46C185.587 119.346 185.611 119.174 185.62 118.95C185.64 118.503 185.597 117.83 185.285 117.061C184.979 116.301 184.378 115.432 183.393 114.858C182.427 114.287 181.101 114.008 179.785 114.359L179.957 114.608C180.265 114.181 180.224 113.632 180.102 113.181C179.97 112.719 179.775 112.288 179.539 111.862C178.723 110.397 177.441 109.329 176.121 108.75C174.788 108.167 173.443 108.094 172.372 108.244C171.291 108.388 170.471 108.746 169.947 109.038C169.684 109.187 169.488 109.315 169.363 109.412C169.24 109.508 169.176 109.564 169.183 109.572Z" fill="#455A64"/>
<path d="M151.309 122.009C151.297 122.023 151.425 122.169 151.689 122.404C151.955 122.636 152.358 122.96 152.921 123.275C153.483 123.583 154.219 123.889 155.101 123.948C155.968 124.006 157 123.817 157.828 123.147L157.586 123.108C157.689 123.255 157.796 123.407 157.903 123.56C158.018 123.707 158.149 123.848 158.273 123.994C159.073 124.834 160.048 125.411 160.997 125.719C161.944 126.036 162.855 126.121 163.605 126.066C164.358 126.014 164.945 125.834 165.334 125.687C165.718 125.52 165.917 125.404 165.907 125.386C165.885 125.318 165.056 125.783 163.594 125.834C162.869 125.856 161.998 125.751 161.097 125.432C160.194 125.123 159.272 124.564 158.515 123.77C158.398 123.631 158.274 123.499 158.164 123.359C158.061 123.215 157.961 123.073 157.863 122.934L157.755 122.784L157.619 122.895C156.88 123.501 155.932 123.696 155.117 123.659C154.292 123.622 153.579 123.357 153.022 123.083C151.91 122.507 151.345 121.961 151.309 122.009Z" fill="#455A64"/>
<path d="M145.44 132.122C145.429 132.125 145.437 132.193 145.465 132.324C145.503 132.45 145.564 132.642 145.704 132.855C145.971 133.286 146.565 133.814 147.46 134.043C148.36 134.285 149.477 134.113 150.591 133.727C151.15 133.533 151.731 133.338 152.326 133.06C152.905 132.781 153.535 132.379 153.849 131.694C153.873 131.634 153.896 131.574 153.919 131.518L153.66 131.595C154.709 132.428 155.79 133.153 156.894 133.572C157.99 134.006 159.095 134.081 159.969 133.914C160.848 133.755 161.497 133.388 161.87 133.067C162.061 132.909 162.192 132.767 162.27 132.665C162.349 132.562 162.385 132.505 162.377 132.498C162.354 132.477 162.18 132.687 161.792 132.965C161.408 133.245 160.774 133.562 159.93 133.684C159.088 133.815 158.052 133.72 157.003 133.289C155.948 132.873 154.901 132.161 153.863 131.336L153.689 131.198L153.604 131.413C153.586 131.458 153.567 131.509 153.546 131.559C153.289 132.128 152.735 132.5 152.183 132.769C151.623 133.036 151.036 133.242 150.491 133.441C149.403 133.833 148.352 134.012 147.511 133.816C146.667 133.63 146.09 133.167 145.807 132.783C145.517 132.396 145.473 132.111 145.44 132.122Z" fill="#455A64"/>
<path d="M181.622 154.724C181.695 155.793 180.849 156.735 179.735 156.831C178.622 156.927 177.661 156.141 177.588 155.071C177.516 154.002 178.362 153.059 179.473 152.963C180.589 152.869 181.55 153.656 181.622 154.724Z" fill="#263238"/>
<path d="M200.878 153.83C200.95 154.898 200.105 155.84 198.99 155.936C197.877 156.032 196.916 155.246 196.844 154.176C196.771 153.108 197.617 152.165 198.729 152.069C199.844 151.974 200.807 152.762 200.878 153.83Z" fill="#263238"/>
<path d="M201.245 147.108C201.003 147.381 199.431 146.295 197.251 146.37C195.073 146.414 193.509 147.587 193.265 147.328C193.143 147.214 193.386 146.729 194.064 146.199C194.734 145.671 195.888 145.143 197.246 145.105C198.604 145.069 199.762 145.532 200.436 146.023C201.123 146.516 201.365 146.986 201.245 147.108Z" fill="#263238"/>
<path d="M179.566 148.196C179.297 148.442 177.843 147.2 175.669 147.053C173.498 146.873 171.821 147.879 171.604 147.597C171.497 147.47 171.783 147.012 172.516 146.556C173.237 146.1 174.437 145.693 175.792 145.794C177.147 145.898 178.252 146.477 178.871 147.035C179.504 147.594 179.697 148.086 179.566 148.196Z" fill="#263238"/>
<path d="M187.696 164.559C187.682 164.436 189.029 164.159 191.215 163.807C191.77 163.732 192.294 163.604 192.374 163.221C192.492 162.815 192.241 162.222 191.95 161.584C191.382 160.254 190.79 158.86 190.168 157.398C187.688 151.437 185.874 146.528 186.114 146.431C186.355 146.332 188.561 151.085 191.042 157.046C191.64 158.517 192.211 159.917 192.755 161.258C192.986 161.884 193.372 162.591 193.114 163.434C192.978 163.856 192.579 164.17 192.225 164.277C191.872 164.397 191.559 164.413 191.284 164.438C189.079 164.629 187.708 164.683 187.696 164.559Z" fill="#263238"/>
<path d="M184.32 167.801C183.503 167.916 182.687 168.338 182.211 169.021C181.734 169.704 181.39 171.304 181.863 171.925C182.267 172.455 184.067 172.454 185.306 172.298C185.879 172.226 186.359 171.828 186.548 171.283L187.038 169.875C187.316 169.074 186.9 168.175 186.091 167.922C185.54 167.749 184.926 167.714 184.32 167.801Z" fill="#FF9A6C"/>
<path d="M180.483 139.516C180.159 140.057 178.075 139.364 175.506 139.178C172.938 138.94 170.771 139.281 170.538 138.694C170.438 138.414 170.897 137.935 171.826 137.532C172.747 137.127 174.147 136.845 175.687 136.971C177.227 137.101 178.561 137.608 179.402 138.159C180.252 138.71 180.628 139.257 180.483 139.516Z" fill="#263238"/>
<path d="M200.845 142.721C200.486 143.28 198.686 143.05 196.616 143.359C194.537 143.605 192.854 144.304 192.369 143.857C192.152 143.637 192.349 143.103 193.038 142.516C193.717 141.933 194.916 141.353 196.342 141.161C197.768 140.972 199.068 141.216 199.868 141.601C200.679 141.986 201 142.451 200.845 142.721Z" fill="#263238"/>
<path d="M179.817 171.251C179.854 171.344 180.361 171.231 181.143 170.977C181.928 170.731 182.969 170.329 184.16 170.178C184.757 170.098 185.337 170.074 185.869 170.068C186.394 170.05 186.813 170.112 187.062 170.305C187.288 170.477 187.359 170.792 187.33 170.961C187.308 171.144 187.213 171.24 187.244 171.286C187.258 171.323 187.443 171.316 187.594 171.062C187.731 170.818 187.779 170.349 187.409 169.931C187.046 169.54 186.433 169.42 185.883 169.402C185.33 169.371 184.712 169.374 184.064 169.462C182.755 169.629 181.678 170.139 180.946 170.504C180.212 170.879 179.779 171.158 179.817 171.251Z" fill="#263238"/>
<path d="M184.517 612.993L184.508 614.596C184.508 614.596 211.578 625.771 211.819 630.93L157.861 630.137L158.859 612.192C166.825 616.025 175.215 616.567 184.517 612.993Z" fill="#263238"/>
<path d="M157.86 630.136L158.099 625.819L209.728 628.16C209.728 628.16 212.115 629.24 211.819 630.929L157.86 630.136Z" fill="#455A64"/>
<path d="M184.694 614.75C184.681 615.013 183.363 615.113 182.054 615.942C180.724 616.737 180.038 617.868 179.797 617.759C179.555 617.705 179.971 616.136 181.574 615.161C183.167 614.17 184.755 614.508 184.694 614.75Z" fill="white"/>
<path d="M190.32 617.174C190.377 617.429 189.229 617.861 188.316 618.962C187.373 620.036 187.13 621.238 186.867 621.223C186.618 621.261 186.459 619.715 187.618 618.367C188.766 617.009 190.317 616.922 190.32 617.174Z" fill="white"/>
<path d="M193.434 623.994C193.194 624.047 192.846 622.725 193.544 621.293C194.231 619.854 195.483 619.303 195.59 619.524C195.736 619.743 194.924 620.505 194.369 621.69C193.789 622.862 193.696 623.972 193.434 623.994Z" fill="white"/>
<path d="M145.934 596.722L168.911 603.147L163.174 616.175L169.126 649.145C169.452 651.002 168.389 652.912 166.533 653.424C165.105 653.818 163.615 653.377 162.667 652.316C157.595 646.629 139.045 625.619 139.49 623.052L140.225 616.199C140.378 614.777 141.755 611.396 141.755 611.089L145.934 596.722Z" fill="#263238"/>
<path d="M165.85 653.551L139.707 620.665L139.57 622.163C139.269 623.774 139.937 624.487 140.63 625.602C142.681 628.91 148.523 636.429 162.556 652.306C163.373 653.231 164.612 653.7 165.85 653.551Z" fill="#455A64"/>
<path d="M158.957 637.329C159.153 637.445 160.143 635.668 162.395 634.868C164.622 634.003 166.583 634.687 166.649 634.472C166.688 634.387 166.254 634.07 165.413 633.876C164.581 633.679 163.342 633.682 162.105 634.139C160.87 634.601 159.946 635.401 159.464 636.087C158.974 636.774 158.87 637.292 158.957 637.329Z" fill="white"/>
<path d="M161.112 642.304C161.272 642.472 162.542 641.429 164.47 641.077C166.39 640.683 167.98 641.171 168.059 640.956C168.18 640.785 166.5 639.873 164.31 640.31C162.115 640.725 160.931 642.191 161.112 642.304Z" fill="white"/>
<path d="M154.695 630.815C154.849 630.998 156.797 629.383 159.743 628.579C162.677 627.731 165.216 628.084 165.245 627.849C165.322 627.665 162.667 626.927 159.518 627.829C156.36 628.699 154.528 630.699 154.695 630.815Z" fill="white"/>
<path d="M163.437 611.693C163.328 611.693 163.231 613.415 163.168 616.129V616.145L163.172 616.175C163.46 618.083 163.86 620.525 164.324 623.173C164.874 626.31 165.408 629.142 165.829 631.186C166.251 633.231 166.557 634.486 166.65 634.47C166.743 634.454 166.604 633.168 166.306 631.102C166.007 629.037 165.548 626.191 164.999 623.055C164.534 620.406 164.081 617.975 163.704 616.083L163.708 616.129C163.643 613.415 163.545 611.693 163.437 611.693Z" fill="#455A64"/>
<path d="M130.746 399.463C128.935 390.721 124.354 374.925 126.159 367.65C130.344 350.791 137.692 341.038 147.733 319.633H155.187L226.793 318.39L232.655 331.377C239.157 348.89 243.601 359.346 245.432 372.156C247.54 386.91 243.839 408.284 235.641 429.867C217.945 476.45 208.063 513.709 207.383 523.742C206.703 533.776 205.636 544.151 196.332 575.925C189.541 599.123 184.519 612.993 184.519 612.993C177.463 616.976 169.979 618.051 163.17 614.181L142.392 606.16C142.392 606.16 148.761 551.444 156.195 536.93C161.546 526.481 170.302 521.518 166.219 507.9C162.132 494.284 136.303 426.278 130.746 399.463Z" fill="#263238"/>
<path d="M214.555 355.279C214.547 355.273 214.452 355.395 214.271 355.64C214.078 355.909 213.818 356.27 213.48 356.741C212.776 357.742 211.761 359.185 210.449 361.052C207.801 364.859 203.956 370.39 199.096 377.382L199.054 377.443L199.061 377.515C199.613 383.629 199.824 390.729 200.202 398.634C200.577 406.539 200.992 415.243 201.436 424.589C201.925 433.935 202.447 443.922 202.995 454.387C203.618 464.853 204.154 475.795 205.202 487.05C206.292 496.414 207.255 505.61 206.456 514.453C206.252 516.657 205.982 518.838 205.566 520.971C205.136 523.091 204.744 525.24 204.016 527.215C202.533 531.186 200.813 535.029 199.181 538.768C192.573 553.721 186.383 567.086 181.229 578.327C176.057 589.536 171.868 598.618 168.959 604.923C167.526 608.046 166.409 610.479 165.637 612.161C165.273 612.972 164.99 613.6 164.787 614.05C164.6 614.477 164.519 614.704 164.519 614.704C164.519 614.704 164.643 614.498 164.851 614.081C165.068 613.637 165.372 613.02 165.763 612.221C166.561 610.553 167.718 608.137 169.203 605.039C172.159 598.755 176.417 589.706 181.673 578.534C186.885 567.318 193.12 553.977 199.764 539.029C201.408 535.278 203.126 531.472 204.644 527.425C205.395 525.381 205.783 523.248 206.224 521.097C206.647 518.943 206.924 516.742 207.131 514.516C207.946 505.591 206.978 496.332 205.889 486.978C204.845 475.768 204.3 464.807 203.666 454.351C203.098 443.887 202.557 433.903 202.049 424.558C201.574 415.215 201.13 406.513 200.726 398.61C200.313 390.713 200.066 383.603 199.469 377.485L199.433 377.617C204.226 370.579 208.017 365.012 210.628 361.18C211.902 359.286 212.887 357.823 213.572 356.807C213.889 356.325 214.135 355.952 214.317 355.675C214.484 355.418 214.564 355.284 214.555 355.279Z" fill="#455A64"/>
<path d="M130.306 246.17L149.204 297.107L143.716 325.898H234.085C234.085 325.898 223.514 299.752 223.156 293.748C222.799 287.744 227.892 252.891 225.03 241.127C222.17 229.364 213.979 204.152 213.979 204.152L189.888 200.326C178.843 206.259 170.168 205.262 158.291 198.387L136.454 209.118L130.306 246.17Z" fill="#F5F5F5"/>
<path d="M213.388 204.113C213.388 204.113 220.7 205.673 225.909 216.314C231.055 226.826 250.966 273.158 251.743 280.93C252.521 288.702 246.215 299.163 240.719 300.61L224.051 283.994L210.222 285.225L192.014 200.269L213.388 204.113Z" fill="#F03561"/>
<g opacity="0.3">
<path d="M223.155 232.69C227.178 243.124 228.315 254.655 226.409 265.674C229.444 264.54 232.481 263.407 235.516 262.273C233.035 265.7 229.775 268.561 226.054 270.573C228.509 269.864 231.027 269.146 233.577 269.313C236.128 269.48 238.765 270.708 239.912 272.993C236.935 272.449 233.904 271.903 230.899 272.254C227.893 272.604 224.861 273.993 223.243 276.551C225.488 266.861 226.352 256.852 225.801 246.919" fill="black"/>
</g>
<path d="M208.163 272.241C208.185 272.248 208.274 272.015 208.423 271.565C208.587 271.041 208.793 270.386 209.045 269.583C209.585 267.758 210.321 265.267 211.225 262.209C212.135 259.046 213.21 255.305 214.409 251.134C214.998 249.049 215.693 246.826 216.119 244.457C216.581 242.102 216.992 239.651 217.379 237.118L217.425 236.823L217.144 236.725C215.786 236.254 214.348 235.756 212.892 235.251C211.397 234.735 209.923 234.226 208.478 233.726L208.567 234.387C211.3 232.807 213.928 231.288 216.401 229.858L216.659 229.709L216.549 229.435C213.59 222.055 210.119 216.194 207.934 211.942C206.821 209.82 205.981 208.116 205.402 206.948C204.833 205.775 204.514 205.146 204.477 205.163C204.459 205.171 204.513 205.339 204.634 205.657C204.787 206.034 204.972 206.49 205.196 207.042C205.711 208.241 206.494 209.98 207.557 212.132C209.645 216.454 213.024 222.343 215.914 229.688L216.06 229.266C213.58 230.687 210.947 232.195 208.206 233.762L207.522 234.155L208.295 234.423C209.73 234.921 211.193 235.429 212.677 235.944C214.124 236.444 215.553 236.938 216.901 237.404L216.666 237.012C216.284 239.533 215.882 241.984 215.437 244.324C215.03 246.669 214.365 248.845 213.789 250.96C212.647 255.146 211.623 258.902 210.756 262.077C209.941 265.159 209.275 267.67 208.789 269.509C208.587 270.326 208.422 270.992 208.291 271.526C208.185 271.99 208.141 272.235 208.163 272.241Z" fill="#263238"/>
<path d="M148.021 296.672L123.655 369.247C123.655 369.247 142.275 382.686 182.196 382.518L189.538 307.331L185.879 267.922L188.378 248.693L176.459 224.405L157.474 191.664L153.792 200.35L132.248 209.513L128.84 244.964L148.021 296.672Z" fill="#F03561"/>
<path d="M211.154 304.863L224.656 379.958L249.797 373.593L229.757 304.863L226.448 284.657L217.08 292.2L211.154 304.863Z" fill="#F03561"/>
<g opacity="0.3">
<path d="M226.935 296.672L159.044 303.399C163.937 303.295 167.703 307.437 171.94 309.889C179.785 314.426 189.556 313.156 198.508 311.748C205.925 310.581 213.342 309.416 220.761 308.248C222.633 307.954 224.627 307.602 226.007 306.304C228.479 303.975 227.801 299.956 226.935 296.672Z" fill="black"/>
</g>
<path d="M175.084 291.091L163.716 280.113C162.613 279.048 161.104 278.518 159.576 278.661C156.331 278.969 150.832 279.539 149.702 279.978C148.076 280.61 146.54 281.514 146.09 282.327C145.638 283.139 144.102 288.018 144.013 288.741C143.968 289.093 144.074 290.106 144.194 291.053C144.335 292.174 145.568 292.836 146.551 292.28C146.994 292.03 147.396 291.7 147.624 291.27C148.347 289.915 148.256 289.373 148.256 289.373C148.256 289.373 147.894 294.251 151.87 294.34C151.87 294.34 150.039 298.495 155.155 300.212C155.155 300.212 154.966 302.922 159.245 303.284C163.524 303.645 167.408 303.284 167.408 303.284C167.408 303.284 175.229 308.902 180.739 309.262C186.249 309.624 198.587 307.216 198.587 307.216L200.075 284.493L175.084 291.091Z" fill="#FFBF9D"/>
<path d="M159.681 284.128C159.695 284.167 159 284.461 157.86 284.891C156.719 285.318 155.129 285.887 153.326 286.367C152.433 286.62 151.533 286.763 150.785 286.969C150.024 287.172 149.566 287.742 149.235 288.239C148.905 288.743 148.642 289.171 148.414 289.431C148.19 289.695 148.033 289.808 148.02 289.794C148.004 289.776 148.13 289.637 148.32 289.359C148.513 289.082 148.74 288.652 149.053 288.122C149.214 287.859 149.406 287.574 149.672 287.31C149.935 287.041 150.301 286.827 150.697 286.702C151.498 286.467 152.351 286.328 153.247 286.072C155.036 285.596 156.629 285.062 157.787 284.687C158.946 284.309 159.667 284.088 159.681 284.128Z" fill="#FF9A6C"/>
<path d="M161.144 291.094C161.159 291.133 160.677 291.358 159.878 291.678C159.081 291.998 157.968 292.412 156.725 292.828C155.481 293.244 154.343 293.584 153.514 293.808C152.685 294.032 152.163 294.143 152.152 294.103C152.14 294.061 152.639 293.877 153.451 293.602C154.374 293.293 155.445 292.935 156.629 292.539C157.812 292.143 158.884 291.784 159.804 291.475C160.62 291.208 161.13 291.055 161.144 291.094Z" fill="#FF9A6C"/>
<path d="M163.954 297.573C163.964 297.667 161.975 297.87 159.608 298.514C157.238 299.147 155.417 299.97 155.378 299.885C155.361 299.851 155.797 299.599 156.538 299.269C157.28 298.939 158.331 298.544 159.529 298.22C160.725 297.899 161.835 297.711 162.641 297.623C163.448 297.534 163.951 297.534 163.954 297.573Z" fill="#FF9A6C"/>
<path d="M190.285 308.66L240.718 300.61C240.718 300.61 234.658 275.314 225.815 275.314C224.52 275.314 179.722 289.868 179.722 289.868L190.285 308.66Z" fill="#F03561"/>
<path d="M181.461 297.645C181.429 297.675 180.987 297.252 180.279 296.563C179.5 295.798 178.561 294.876 177.523 293.856C176.453 292.792 175.497 291.813 174.827 291.084C174.155 290.355 173.768 289.879 173.799 289.851C173.831 289.822 174.272 290.245 174.981 290.933C175.76 291.699 176.699 292.621 177.737 293.64C178.807 294.705 179.763 295.684 180.432 296.413C181.104 297.142 181.492 297.619 181.461 297.645Z" fill="#FF9A6C"/>
<path d="M179.722 289.867C179.729 289.89 179.95 289.849 180.363 289.747C180.857 289.616 181.45 289.458 182.161 289.269C183.826 288.79 186.043 288.151 188.732 287.378C194.272 285.752 201.91 283.457 210.332 280.88C214.996 279.44 219.414 278.076 223.336 276.866L223.437 276.834L223.514 276.731C225.059 274.651 227.337 273.385 229.391 272.759C231.481 272.122 233.435 272.044 235.013 272.187C236.6 272.317 237.823 272.666 238.645 272.913C239.467 273.178 239.893 273.366 239.909 273.334C239.926 273.303 239.527 273.048 238.716 272.719C237.902 272.404 236.675 271.988 235.054 271.799C233.444 271.597 231.422 271.621 229.237 272.24C227.071 272.869 224.702 274.094 222.966 276.376L223.144 276.242C219.215 277.433 214.79 278.776 210.119 280.192C201.696 282.769 194.083 285.141 188.581 286.893C185.92 287.756 183.724 288.469 182.077 289.003C181.382 289.244 180.802 289.445 180.319 289.612C179.921 289.754 179.715 289.843 179.722 289.867Z" fill="#263238"/>
<path d="M137.484 208.456L158.856 226.744L181.819 251.368L189.87 217.471L212.419 222.105C212.419 222.105 210.827 264.07 203.888 283.091C202.568 286.71 198.661 289.402 196.919 290.23C186.018 295.406 175.376 287.398 175.376 287.398C175.376 287.398 129.899 256.876 124.969 236.442C122.641 226.793 126.342 215.67 130.308 210.947C133.794 206.793 137.484 208.456 137.484 208.456Z" fill="#F03561"/>
<path d="M191.602 208.111C191.181 206.708 188.812 193.749 187.849 190.734C186.49 186.483 175.443 178.881 175.443 178.881C175.443 178.881 177.175 174.89 181.878 176.964C187.447 179.419 190.199 183.554 191.602 182.712C193.004 181.87 201.752 172.967 204.136 173.248C206.52 173.529 207.045 175.975 206.203 176.957C205.362 177.939 204.417 179.56 204.417 179.56C204.417 179.56 209.467 178.041 208.485 183.569C208.485 183.569 214.235 179.98 213.675 187.554C213.675 187.554 217.463 186.012 218.304 188.677C219.146 191.342 216.65 194.428 215.387 196.532C214.124 198.637 210.027 210.841 210.027 210.841L209.979 221.601L189.869 217.468L191.602 208.111Z" fill="#FFBF9D"/>
<path d="M191.602 208.111C191.587 208.112 191.534 208.321 191.444 208.728C191.349 209.177 191.224 209.774 191.067 210.532C190.745 212.163 190.288 214.482 189.705 217.439L189.673 217.601L189.835 217.635C194.802 218.684 201.67 220.134 209.923 221.877L210.255 221.946L210.258 221.604C210.283 218.291 210.311 214.665 210.339 210.844L210.322 210.941C211.758 206.803 213.249 202.35 215.123 197.853C216.038 195.687 217.948 193.799 218.637 191.17C218.805 190.52 218.883 189.816 218.77 189.115C218.665 188.442 218.346 187.666 217.681 187.24C217.034 186.811 216.269 186.718 215.576 186.767C214.871 186.818 214.209 186.971 213.54 187.223L214.032 187.581C214.06 186.841 214.089 186.089 213.983 185.313C213.846 184.558 213.675 183.713 213.022 183.075C212.389 182.409 211.393 182.265 210.592 182.409C209.764 182.545 209.016 182.84 208.294 183.261L208.842 183.631C208.977 182.615 209.151 181.376 208.466 180.262C208.041 179.562 207.244 179.162 206.504 179.057C205.747 178.949 205.035 179.025 204.314 179.212L204.731 179.74C205.235 178.897 205.776 178.054 206.378 177.312C206.768 176.922 206.972 176.25 206.939 175.704C206.91 175.136 206.718 174.588 206.392 174.132C206.068 173.673 205.602 173.318 205.089 173.117C204.83 173.024 204.569 172.948 204.301 172.912C204.044 172.875 203.682 172.916 203.431 172.985C202.398 173.321 201.608 173.898 200.807 174.454C197.67 176.745 194.981 179.376 192.27 181.749C191.947 182.014 191.546 182.388 191.311 182.455C191.068 182.534 190.665 182.346 190.317 182.139C189.6 181.694 188.916 181.12 188.226 180.586C186.853 179.497 185.435 178.476 183.948 177.641C182.47 176.861 180.91 175.996 179.153 176.069C177.391 176.107 175.876 177.28 175.173 178.761L175.07 178.977L175.276 179.123C179.58 182.182 183.45 185.195 186.187 188.435C186.868 189.25 187.4 190.11 187.701 191.025C187.984 191.97 188.202 192.91 188.411 193.807C188.806 195.609 189.17 197.263 189.499 198.761C190.129 201.714 190.627 204.046 190.978 205.689C191.154 206.484 191.297 207.092 191.406 207.498C191.512 207.91 191.602 208.111 191.602 208.111C191.62 208.111 191.572 207.896 191.495 207.482C191.409 207.025 191.296 206.422 191.153 205.655C190.84 204.004 190.395 201.663 189.833 198.694C189.525 197.189 189.184 195.528 188.814 193.718C188.614 192.813 188.408 191.872 188.13 190.897C187.818 189.908 187.247 188.972 186.561 188.137C183.783 184.786 179.936 181.753 175.611 178.636L175.716 178.998C176.335 177.733 177.663 176.7 179.177 176.69C180.696 176.622 182.18 177.424 183.631 178.205C185.075 179.025 186.451 180.023 187.813 181.112C188.503 181.649 189.172 182.222 189.968 182.72C190.371 182.936 190.825 183.254 191.48 183.115C192.099 182.887 192.33 182.555 192.714 182.271C195.457 179.884 198.143 177.271 201.217 175.036C201.981 174.497 202.796 173.937 203.624 173.675C203.833 173.629 203.976 173.602 204.193 173.621C204.411 173.65 204.617 173.713 204.819 173.784C205.217 173.941 205.562 174.207 205.805 174.552C206.289 175.231 206.41 176.254 205.819 176.854C205.17 177.657 204.63 178.501 204.104 179.377L203.648 180.14L204.521 179.906C205.693 179.593 207.234 179.626 207.854 180.653C208.366 181.442 208.266 182.567 208.128 183.506L208.018 184.263L208.678 183.876C209.293 183.515 210.009 183.234 210.698 183.125C211.392 183.01 212.082 183.129 212.516 183.59C213.406 184.551 213.38 186.172 213.319 187.529L213.294 188.076L213.811 187.887C214.945 187.474 216.361 187.229 217.282 187.827C217.739 188.116 217.975 188.646 218.073 189.231C218.168 189.808 218.107 190.412 217.956 190.996C217.652 192.171 217.033 193.268 216.382 194.319C215.742 195.363 214.968 196.402 214.5 197.579C212.615 202.144 211.153 206.58 209.732 210.742L209.716 210.79V210.84C209.71 214.661 209.706 218.286 209.7 221.6L210.036 221.327C201.763 219.673 194.88 218.298 189.904 217.303L190.036 217.498C190.552 214.514 190.958 212.175 191.242 210.53C191.364 209.77 191.46 209.172 191.533 208.721C191.594 208.318 191.617 208.111 191.602 208.111Z" fill="#FF9A6C"/>
<path d="M204.399 179.702C204.453 179.77 203.317 180.741 201.957 181.979C200.596 183.215 199.522 184.253 199.459 184.193C199.399 184.138 200.381 182.998 201.753 181.753C203.122 180.507 204.349 179.638 204.399 179.702Z" fill="#FF9A6C"/>
<path d="M208.895 183.268C208.967 183.299 208.536 184.387 207.655 185.515C206.78 186.649 205.834 187.337 205.787 187.275C205.729 187.207 206.563 186.433 207.415 185.329C208.273 184.231 208.816 183.229 208.895 183.268Z" fill="#FF9A6C"/>
<path d="M213.598 187.28C213.666 187.329 213.193 188.103 212.541 189.005C211.889 189.91 211.306 190.601 211.237 190.552C211.169 190.504 211.642 189.731 212.295 188.827C212.946 187.923 213.529 187.232 213.598 187.28Z" fill="#FF9A6C"/>
<path d="M130.306 248.913C130.299 248.92 130.386 249.012 130.559 249.187C130.757 249.38 131.016 249.632 131.347 249.956C132.076 250.646 133.115 251.631 134.453 252.9C137.182 255.458 141.193 259.176 146.323 263.807C151.463 268.427 157.694 273.993 165.035 280.051C166.88 281.553 168.792 283.089 170.804 284.612C171.8 285.386 172.864 286.102 173.913 286.865C174.443 287.239 175.016 287.567 175.57 287.923C176.123 288.286 176.695 288.622 177.295 288.917C179.648 290.166 182.194 291.224 184.919 291.898C187.646 292.511 190.563 292.878 193.501 292.028L193.425 292.048C195.426 291.721 197.428 291.073 199.167 289.875C200.889 288.659 202.239 286.965 203.271 285.116C205.348 281.378 206.171 277.073 206.903 272.794C207.234 270.628 207.623 268.506 207.954 266.285C208.258 264.084 208.522 261.865 208.784 259.628C209.28 255.153 209.784 250.609 210.294 246.008C211.14 237.851 211.968 229.869 212.769 222.141L212.802 221.821L212.487 221.756C204.68 220.157 197.137 218.613 189.936 217.139L189.614 217.073L189.539 217.392C186.459 230.433 183.644 242.354 181.193 252.733L181.666 252.608C171.746 242.128 163.669 233.595 158.046 227.657C155.251 224.73 153.067 222.443 151.558 220.864C150.826 220.11 150.259 219.526 149.851 219.107C149.463 218.713 149.249 218.527 149.249 218.527C149.249 218.527 149.423 218.752 149.791 219.164C150.184 219.595 150.733 220.199 151.44 220.975C152.924 222.579 155.071 224.9 157.819 227.871C163.399 233.85 171.416 242.44 181.261 252.989L181.613 253.366L181.734 252.862C184.22 242.491 187.074 230.581 190.197 217.549L189.801 217.802C197.001 219.288 204.541 220.845 212.345 222.454L212.062 222.07C211.257 229.796 210.426 237.776 209.577 245.932C209.067 250.529 208.565 255.073 208.07 259.545C207.81 261.779 207.547 263.998 207.248 266.185C206.897 268.369 206.549 270.533 206.205 272.678C205.484 276.936 204.667 281.179 202.668 284.779C201.678 286.563 200.397 288.171 198.777 289.32C197.142 290.451 195.251 291.069 193.34 291.389L193.317 291.393L193.263 291.409C190.624 292.181 187.702 291.875 185.071 291.273C182.411 290.625 179.907 289.595 177.584 288.371C176.991 288.082 176.428 287.755 175.886 287.402C175.339 287.052 174.78 286.735 174.254 286.368C173.21 285.614 172.153 284.91 171.159 284.144C169.15 282.637 167.236 281.114 165.388 279.623C158.032 273.61 151.768 268.085 146.593 263.51C141.47 258.912 137.408 255.266 134.599 252.745C133.23 251.51 132.168 250.55 131.422 249.878C131.074 249.571 130.804 249.33 130.597 249.148C130.411 248.985 130.313 248.906 130.306 248.913Z" fill="#263238"/>
<path d="M223.155 276.031C223.197 276.045 223.461 275.519 223.817 274.513C224.187 273.513 224.646 272.036 225.043 270.169C225.908 266.437 226.15 261.142 226.256 255.369C226.627 249.557 225.744 244.271 224.905 240.58C224.482 238.725 224.065 237.242 223.745 236.228C223.425 235.213 223.204 234.667 223.155 234.681C223.108 234.696 223.237 235.268 223.472 236.301C223.706 237.335 224.047 238.828 224.403 240.685C225.11 244.4 225.9 249.572 225.531 255.35C225.424 261.139 225.265 266.36 224.539 270.07C223.876 273.786 223.034 275.989 223.155 276.031Z" fill="#263238"/>
<path d="M173.407 350.125C173.393 350.108 173.156 350.05 172.715 349.954C172.209 349.848 171.577 349.714 170.8 349.552C169.065 349.201 166.689 348.723 163.757 348.13C157.782 346.936 149.483 345.296 139.958 343.493L140.214 343.987C141.534 341.103 142.924 338.067 144.352 334.945C144.714 334.152 145.074 333.363 145.425 332.596L145.034 332.801C156.076 334.693 165.996 336.393 173.363 337.655L173.153 337.405C173.213 341.238 173.262 344.367 173.297 346.633C173.322 347.683 173.343 348.531 173.358 349.193C173.375 349.784 173.39 350.107 173.407 350.125C173.422 350.144 173.437 349.859 173.455 349.297C173.472 348.652 173.491 347.825 173.518 346.801C173.553 344.494 173.601 341.308 173.661 337.403L173.664 337.19L173.45 337.153C166.092 335.835 156.185 334.062 145.156 332.088L144.881 332.039L144.764 332.295C144.413 333.063 144.053 333.852 143.69 334.645C142.267 337.769 140.883 340.809 139.568 343.695L139.38 344.107L139.824 344.189C149.516 345.989 157.974 347.491 163.951 348.54C166.861 349.044 169.219 349.453 170.942 349.75C171.691 349.874 172.302 349.973 172.79 350.054C173.21 350.116 173.421 350.141 173.407 350.125Z" fill="#263238"/>
<path d="M227.723 336.588L238.456 333.891L244.869 347.026L231.481 349.331L227.723 336.588Z" fill="#F03561"/>
<path d="M227.725 336.588C227.696 336.571 227.761 336.875 227.908 337.462C228.092 338.163 228.315 339.017 228.583 340.039C229.181 342.276 230.063 345.523 231.18 349.418L231.257 349.687L231.535 349.639C235.299 349.005 239.677 348.268 244.344 347.482C244.542 347.448 244.739 347.414 244.931 347.38L245.41 347.298L245.196 346.864C242.792 341.997 240.57 337.499 238.723 333.76L238.616 333.543L238.386 333.603C235.074 334.468 232.371 335.218 230.525 335.738C228.676 336.263 227.672 336.559 227.725 336.588C227.751 336.603 228.041 336.552 228.561 336.445C229.173 336.313 229.903 336.154 230.775 335.966C232.669 335.548 235.331 334.948 238.529 334.177L238.193 334.02C240.005 337.776 242.185 342.293 244.545 347.183L244.809 346.667C244.617 346.7 244.419 346.733 244.222 346.767C239.56 347.587 235.188 348.357 231.428 349.018L231.783 349.239C230.647 345.497 229.651 342.374 228.935 340.148C228.597 339.114 228.315 338.253 228.082 337.547C227.875 336.94 227.753 336.605 227.725 336.588Z" fill="#263238"/>
<path d="M154.962 198.025C154.94 198.029 154.961 198.241 155.02 198.641C155.083 199.042 155.175 199.633 155.321 200.391C155.603 201.91 156.061 204.11 156.75 206.821C158.155 212.202 160.404 219.824 165.248 227.292L165.342 227.437L165.498 227.45C167.151 227.583 168.701 227.233 170.318 227.088C171.031 227.014 171.758 226.947 172.395 227.02L172.31 226.327C171.627 226.686 171.227 227.091 170.74 227.49C170.282 227.895 169.829 228.295 169.379 228.692C168.504 229.453 167.592 230.344 166.772 230.829L166.416 231.04L166.607 231.338C170.757 237.831 175.015 242.948 177.783 246.768C179.189 248.662 180.281 250.194 181.019 251.255C181.755 252.317 182.158 252.893 182.196 252.869C182.214 252.858 182.137 252.699 181.972 252.403C181.805 252.11 181.561 251.673 181.218 251.123C180.542 250.019 179.502 248.443 178.142 246.508C175.465 242.608 171.275 237.425 167.2 230.969L167.034 231.478C167.664 231.153 168.047 230.777 168.517 230.397C168.958 230.012 169.403 229.621 169.855 229.226C170.302 228.834 170.752 228.436 171.209 228.035C171.652 227.658 172.166 227.216 172.582 226.997L173.658 226.433L172.497 226.305C171.705 226.217 170.979 226.298 170.243 226.369C168.625 226.523 166.994 226.856 165.6 226.74L165.849 226.897C161.059 219.561 158.735 212.026 157.214 206.699C156.467 204.015 155.939 201.838 155.578 200.338C155.215 198.838 155.009 198.015 154.962 198.025Z" fill="#263238"/>
</svg>
