<svg width="240" height="240" viewBox="0 0 240 240" fill="none" xmlns="http://www.w3.org/2000/svg">
<g clip-path="url(#clip0_104_652)">
<path d="M119.947 219.992C175.034 220.022 219.714 175.389 219.744 120.302C219.773 65.2148 175.14 20.5342 120.053 20.5048C64.9662 20.4755 20.2856 65.1085 20.2562 120.195C20.2269 175.282 64.8599 219.963 119.947 219.992Z" fill="#FFB522"/>
<path d="M184.592 184.91C223.002 146.54 223.941 85.2046 186.688 47.9124C149.436 10.6203 88.0993 11.4934 49.6891 49.8626C11.279 88.2318 10.3405 149.567 47.5929 186.86C84.8454 224.152 146.182 223.279 184.592 184.91Z" fill="#FED835"/>
<path d="M43.5362 68.0129C51.5196 55.0647 63.4175 44.3033 77.311 37.093C79.0378 36.1687 80.8243 35.3628 82.6073 34.5412C83.5079 34.1521 84.4175 33.7833 85.3245 33.4052C86.2364 33.0403 87.162 32.7111 88.0819 32.3627C91.7851 31.0192 95.5708 29.9148 99.4155 29.0561C103.266 28.1986 107.166 27.5837 111.094 27.215C115.02 26.863 118.964 26.7367 122.905 26.8368C126.839 26.9692 130.763 27.3145 134.66 27.8711C136.604 28.1663 138.541 28.509 140.466 28.913C142.391 29.3116 144.31 29.7503 146.207 30.2848C148.106 30.8093 149.993 31.3913 151.867 32.0308C152.801 32.3594 153.747 32.6807 154.656 33.0583L157.376 34.2022C160.99 35.7292 164.5 37.4921 167.884 39.4796C168.314 39.7113 168.729 39.9705 169.143 40.2325L170.381 41.0183C171.201 41.5521 172.037 42.0555 172.838 42.6133L175.227 44.3025C175.622 44.5863 176.026 44.8582 176.411 45.1564L177.557 46.0624C180.621 48.4396 183.528 51.013 186.26 53.7664C188.965 56.5058 191.488 59.4182 193.815 62.4853C196.13 65.5225 198.214 68.729 200.049 72.0778C197.39 69.3605 194.662 66.7652 191.865 64.2919C191.173 63.6663 190.456 63.068 189.743 62.4687C189.033 61.8675 188.329 61.2628 187.591 60.6964C186.855 60.1284 186.152 59.5277 185.413 58.9701L183.192 57.3097C182.456 56.7548 181.688 56.2404 180.94 55.7053L179.814 54.911C179.437 54.6478 179.044 54.408 178.66 54.1557L176.361 52.6476L174.01 51.2303L172.837 50.5247L171.641 49.8594L169.254 48.5338C168.456 48.0979 167.627 47.7176 166.818 47.3073C165.996 46.9192 165.211 46.4658 164.377 46.1075L161.898 44.9965L160.661 44.4418L159.396 43.9509L156.881 42.948L156.253 42.6961L155.613 42.4763L154.332 42.0404L151.776 41.1676C150.92 40.889 150.074 40.6305 149.216 40.3818C147.501 39.8892 145.76 39.4488 144.007 39.0582C136.983 37.4837 129.826 36.5823 122.631 36.3661C108.2 35.8966 93.8302 38.4546 80.4475 43.8754L79.1888 44.3903C78.7662 44.5563 78.348 44.7321 77.936 44.9216L75.4441 46.0275C73.8119 46.8252 72.1611 47.6028 70.5537 48.4688C67.3281 50.179 64.1499 52.0272 61.0793 54.072C57.9971 56.1015 55.0032 58.2974 52.0786 60.6226C49.1579 62.9529 46.3273 65.4317 43.5362 68.0129Z" fill="#FFE888"/>
<path d="M69.972 137.272C72.9903 164.867 90.3618 181.866 104.127 185.27C123.204 189.988 138.307 182.657 141.669 180.182C145.548 177.326 164.906 161.1 165.804 137.944C166.644 116.301 149.988 93.156 137.643 97.82C121.262 104.008 110.34 107.147 97.2898 98.6477C83.2535 89.5069 67.391 113.674 69.972 137.272Z" fill="#FFE161"/>
<path d="M83.6174 114.29C96.4588 114.296 106.874 103.892 106.881 91.0505C106.888 78.209 96.4836 67.7934 83.6422 67.7866C70.8007 67.7797 60.3851 78.1842 60.3782 91.0257C60.3714 103.867 70.7759 114.283 83.6174 114.29Z" fill="white"/>
<path d="M83.6356 79.9937C88.1095 79.9929 92.5253 81.0069 96.5508 82.9592C100.576 84.9116 104.106 87.7515 106.876 91.2652C106.876 91.1934 106.881 91.1225 106.881 91.0505C106.884 87.9962 106.286 84.9712 105.119 82.1484C103.953 79.3255 102.242 76.7601 100.084 74.5988C97.9255 72.4374 95.3627 70.7224 92.5416 69.5517C89.7205 68.3811 86.6965 67.7777 83.6422 67.7761C80.5878 67.7744 77.5631 68.3746 74.7408 69.5422C71.9185 70.7099 69.3539 72.4222 67.1935 74.5812C65.0331 76.7403 63.3192 79.3039 62.1499 82.1255C60.9805 84.9471 60.3785 87.9714 60.3782 91.0257C60.3782 91.0977 60.3829 91.1686 60.3835 91.2404C63.1566 87.7296 66.6899 84.8935 70.7174 82.9454C74.7449 80.9974 79.1618 79.9881 83.6356 79.9937Z" fill="#FCC02E"/>
<path d="M83.9233 85.5161C81.7389 85.515 79.6033 86.1616 77.7864 87.3742C75.9695 88.5868 74.5529 90.311 73.7159 92.3286C72.8789 94.3463 72.659 96.5669 73.084 98.7095C73.509 100.852 74.5599 102.821 76.1037 104.366C77.6474 105.911 79.6148 106.964 81.757 107.392C83.8992 107.819 86.12 107.601 88.1385 106.767C90.1571 105.932 91.8828 104.517 93.0973 102.701C94.3119 100.886 94.9608 98.7509 94.9619 96.5665C94.9627 95.1161 94.6778 93.6798 94.1235 92.3395C93.5691 90.9992 92.7563 89.7813 91.7312 88.7551C90.7062 87.729 89.4891 86.9149 88.1494 86.3591C86.8097 85.8034 85.3737 85.5169 83.9233 85.5161ZM80.9487 96.559C80.0906 96.5586 79.2518 96.3037 78.5385 95.8265C77.8253 95.3494 77.2695 94.6715 76.9415 93.8785C76.6135 93.0854 76.528 92.213 76.6959 91.3714C76.8637 90.5298 77.2774 89.7569 77.8845 89.1504C78.4917 88.5439 79.265 88.1311 80.1068 87.9641C80.9485 87.7971 81.8209 87.8835 82.6135 88.2124C83.4062 88.5412 84.0836 89.0977 84.5599 89.8115C85.0363 90.5252 85.2904 91.3643 85.2899 92.2224C85.2893 93.3732 84.8316 94.4765 84.0174 95.2898C83.2033 96.1031 82.0995 96.5596 80.9487 96.559Z" fill="#332929"/>
<path d="M155.697 114.328C168.539 114.335 178.954 103.931 178.961 91.0891C178.968 78.2476 168.563 67.832 155.722 67.8251C142.88 67.8183 132.465 78.2228 132.458 91.0643C132.451 103.906 142.856 114.321 155.697 114.328Z" fill="white"/>
<path d="M155.715 80.032C160.189 80.0312 164.605 81.0452 168.63 82.9975C172.656 84.9499 176.186 87.7898 178.955 91.3035C178.956 91.2317 178.961 91.1608 178.961 91.0888C178.964 88.0345 178.365 85.0095 177.199 82.1867C176.032 79.3639 174.321 76.7985 172.163 74.6371C170.005 72.4757 167.442 70.7607 164.621 69.5901C161.8 68.4194 158.776 67.816 155.722 67.8144C152.668 67.8128 149.643 68.4129 146.821 69.5806C143.998 70.7482 141.434 72.4605 139.273 74.6196C137.113 76.7786 135.399 79.3422 134.23 82.1638C133.06 84.9854 132.458 88.0097 132.458 91.0641C132.458 91.136 132.463 91.2069 132.463 91.2788C135.236 87.768 138.77 84.9318 142.797 82.9838C146.825 81.0357 151.241 80.0265 155.715 80.032Z" fill="#FCC02E"/>
<path d="M156.003 85.5545C153.819 85.5533 151.683 86.1999 149.866 87.4125C148.049 88.6251 146.633 90.3493 145.796 92.367C144.959 94.3846 144.739 96.6052 145.164 98.7478C145.589 100.89 146.64 102.859 148.183 104.404C149.727 105.95 151.695 107.003 153.837 107.43C155.979 107.857 158.2 107.64 160.218 106.805C162.237 105.97 163.963 104.555 165.177 102.74C166.392 100.924 167.041 98.7892 167.042 96.6048C167.042 95.1544 166.758 93.7181 166.203 92.3778C165.649 91.0376 164.836 89.8196 163.811 88.7935C162.786 87.7674 161.569 86.9532 160.229 86.3974C158.89 85.8417 157.453 85.5552 156.003 85.5545ZM153.028 96.5974C152.17 96.5969 151.332 96.342 150.618 95.8648C149.905 95.3877 149.349 94.7097 149.021 93.9167C148.693 93.1237 148.608 92.2513 148.776 91.4097C148.944 90.5681 149.357 89.7952 149.964 89.1887C150.571 88.5822 151.345 88.1694 152.187 88.0024C153.028 87.8355 153.901 87.9219 154.693 88.2507C155.486 88.5795 156.163 89.136 156.64 89.8498C157.116 90.5636 157.37 91.4026 157.37 92.2608C157.369 92.8305 157.257 93.3947 157.039 93.921C156.82 94.4473 156.5 94.9255 156.097 95.3282C155.694 95.7308 155.216 96.0502 154.689 96.268C154.163 96.4857 153.598 96.5977 153.028 96.5974Z" fill="#332929"/>
<path d="M64.1367 128.33C71.8416 128.334 78.0891 125.605 78.0909 122.234C78.0927 118.863 71.8481 116.127 64.1432 116.123C56.4384 116.119 50.1909 118.848 50.1891 122.219C50.1873 125.59 56.4319 128.326 64.1367 128.33Z" fill="#F03561"/>
<path d="M175.163 128.389C182.868 128.393 189.115 125.664 189.117 122.293C189.119 118.922 182.874 116.186 175.169 116.182C167.464 116.178 161.217 118.907 161.215 122.278C161.213 125.649 167.458 128.385 175.163 128.389Z" fill="#F03561"/>
<path d="M152.193 125.509C154.904 126.669 155.911 133.759 150.613 141.507C145.638 149.091 134.358 157.332 119.92 157.009C105.482 157.317 94.2109 149.063 89.2431 141.474C83.9541 133.721 84.968 126.631 87.6808 125.474C90.6982 123.964 95.3451 126.775 100.893 128.9C106.909 131.479 113.387 132.81 119.933 132.814C126.479 132.817 132.958 131.493 138.978 128.92C144.527 126.801 149.177 123.996 152.193 125.509Z" fill="#7A1B5B"/>
<path d="M114.77 141.046C111.549 141.044 108.427 142.157 105.933 144.195C103.439 146.233 101.727 149.072 101.087 152.228C105.597 154.966 111.548 156.739 119.412 156.743C122.53 156.766 125.641 156.447 128.689 155.792C128.704 155.531 128.713 155.269 128.713 155.004C128.714 153.172 128.354 151.358 127.654 149.665C126.954 147.972 125.927 146.433 124.632 145.137C123.337 143.841 121.8 142.812 120.108 142.11C118.416 141.408 116.602 141.047 114.77 141.046Z" fill="#EE3F7A"/>
<path d="M139.406 151.152C138.236 148.112 136.039 145.578 133.196 143.989C130.353 142.399 127.044 141.854 123.841 142.449C120.639 143.043 117.746 144.739 115.662 147.243C113.579 149.747 112.438 152.901 112.436 156.158C112.436 156.178 112.438 156.197 112.438 156.217C114.745 156.573 117.077 156.749 119.412 156.743C128.283 156.747 134.725 154.501 139.406 151.152Z" fill="#EE3F7A"/>
</g>
<defs>
<clipPath id="clip0_104_652">
<rect width="238.405" height="238.405" fill="white" transform="translate(0.861206 0.982666) rotate(0.0305378)"/>
</clipPath>
</defs>
</svg>
