<svg width="99" height="70" viewBox="0 0 99 70" fill="none" xmlns="http://www.w3.org/2000/svg">
<path d="M89.9864 46.979V23.0201C91.6073 23.0201 93.1617 23.6678 94.3078 24.8207C95.454 25.9736 96.0978 27.5373 96.0978 29.1678V40.8323C96.0978 42.4627 95.454 44.0264 94.3078 45.1793C93.1617 46.3322 91.6073 46.9799 89.9864 46.9799V46.979Z" fill="#3F3115"/>
<path d="M65.2667 67.3775H33.7334C21.8909 67.3775 12.2559 57.6854 12.2559 45.7728V24.2271C12.2559 12.3146 21.8909 2.62244 33.7334 2.62244H65.2667C77.1091 2.62244 86.7442 12.3146 86.7442 24.2271V45.7728C86.746 57.6854 77.111 67.3775 65.2667 67.3775ZM33.7334 9.32147C25.5631 9.32147 18.9154 16.0085 18.9154 24.2271V45.7728C18.9154 53.9915 25.5631 60.6785 33.7334 60.6785H65.2667C73.437 60.6785 80.0846 53.9915 80.0846 45.7728V24.2271C80.0846 16.0085 73.437 9.32147 65.2667 9.32147H33.7334Z" fill="#3F3115"/>
<path d="M9.01358 23.0211V46.9799C7.39273 46.9799 5.83827 46.3322 4.69215 45.1793C3.54604 44.0264 2.90216 42.4627 2.90216 40.8323V29.1677C2.9024 27.5375 3.54639 25.974 4.69248 24.8213C5.83856 23.6686 7.39289 23.0211 9.01358 23.0211Z" fill="#3F3115"/>
<path d="M23.2833 37.5616C23.6207 37.746 23.8782 37.8917 24.1395 38.0318C25.5374 38.7778 27.0261 38.9392 28.5679 38.7022C29.4415 38.5676 30.008 38.0033 30.1152 37.2269C30.2225 36.4505 29.8146 35.7303 29.0107 35.3504C27.6687 34.716 26.3166 34.1019 24.9773 33.4656C23.9516 32.9778 23.2833 32.1811 23.0001 31.0746C22.5271 29.2397 23.5748 27.377 25.4586 26.6984C26.7052 26.2493 27.9996 26.2262 29.2884 26.3895C30.041 26.4817 30.7743 26.7325 31.5177 26.9068C31.7414 26.9593 31.8202 27.0829 31.8147 27.3171C31.8001 27.9801 31.8147 28.6431 31.8083 29.3061C31.8083 29.4084 31.7882 29.5098 31.7726 29.6601C31.5361 29.5559 31.3436 29.4693 31.1502 29.3835C29.7403 28.7749 28.2782 28.5702 26.7657 28.8487C26.4598 28.9031 26.1671 29.0157 25.9032 29.1806C25.0681 29.7173 25.091 30.7482 25.9618 31.2277C26.6759 31.6168 27.4285 31.9276 28.1618 32.278C28.9401 32.6468 29.7422 32.9788 30.4856 33.4112C32.0027 34.2909 32.7956 36.0281 32.5022 37.6732C32.3582 38.5111 31.9617 39.2843 31.3664 39.8881C30.771 40.4919 30.0057 40.8972 29.1738 41.0489C27.4111 41.3837 25.6731 41.2693 23.9837 40.6266C23.3823 40.3989 23.2503 40.1979 23.243 39.5469C23.243 39.0406 23.243 38.5325 23.243 38.0272C23.2485 37.8981 23.2668 37.7727 23.2833 37.5616Z" fill="#F7E36F"/>
<path d="M68.1258 36.444C68.2935 37.5321 69.3174 38.551 70.4174 38.7806C71.5174 39.0102 72.4974 38.7391 73.3297 37.9507C73.4782 37.8252 73.6639 37.7529 73.8577 37.7451C74.4563 37.7193 75.0558 37.734 75.6544 37.7377C75.7919 37.7377 75.9294 37.7571 76.1127 37.7718C75.8642 38.4405 75.4727 39.0462 74.9659 39.5459C72.1674 42.4413 67.1477 41.2472 65.9707 37.391C64.9688 34.1083 66.979 30.9151 70.1379 30.3526C72.0253 30.0151 73.7129 30.5177 75.0347 31.9608C75.768 32.7621 76.1824 33.7127 75.9633 34.834C75.7699 35.8262 75.0466 36.432 74.0383 36.4385C72.2297 36.4514 70.4202 36.4431 68.6116 36.444H68.1258ZM68.211 34.5952H69.2322C70.5623 34.5952 71.8905 34.6007 73.2206 34.5952C73.7174 34.5952 73.8861 34.2826 73.6331 33.8575C73.5823 33.776 73.5256 33.6984 73.4635 33.6251C72.3837 32.3019 70.2644 32.1931 69.0067 33.3992C68.6465 33.7249 68.3729 34.136 68.211 34.5952Z" fill="#F7E36F"/>
<path d="M61.4671 33.7487C61.4671 31.5209 61.4744 29.2932 61.4597 27.0654C61.4597 26.7076 61.5734 26.6043 61.9116 26.6246C62.402 26.6495 62.8934 26.6495 63.3838 26.6246C63.6955 26.6089 63.7679 26.7325 63.7661 27.0202C63.7578 29.212 63.7606 31.4038 63.7606 33.5957C63.7606 35.8597 63.7606 38.1238 63.7606 40.3878C63.7606 40.9134 63.7606 40.9134 63.2491 40.9143H61.9575C61.4753 40.9143 61.468 40.907 61.468 40.433C61.4674 38.2064 61.4671 35.9784 61.4671 33.7487Z" fill="#F7E36F"/>
<path d="M47.0461 36.634H44.8039C44.7957 36.5021 44.7819 36.3758 44.7819 36.2485C44.7819 35.5108 44.7938 34.7787 44.7819 34.0438C44.7489 32.443 45.5052 31.3236 46.9388 30.7491C48.8574 29.982 50.7778 30.0032 52.5635 31.1788C53.5013 31.7957 53.9385 32.7252 53.9532 33.8474C53.9642 34.7612 53.9532 35.6759 53.9532 36.6201H51.7064C51.6991 36.468 51.6853 36.3057 51.6853 36.1425C51.6853 35.4555 51.6707 34.7686 51.6853 34.0825C51.7009 33.4583 51.4177 33.0396 50.8603 32.8257C49.8935 32.4388 48.8156 32.4417 47.8509 32.834C47.3073 33.0498 47.0323 33.4619 47.0424 34.0687C47.0562 34.9096 47.0461 35.7515 47.0461 36.634Z" fill="#3F3115"/>
<path d="M43.6645 36.6247H41.4122C41.4049 36.4938 41.3921 36.3656 41.3921 36.2384C41.3921 35.5155 41.3829 34.7925 41.3921 34.0696C41.3994 33.4656 41.1235 33.0415 40.5799 32.8322C39.5578 32.4366 38.5201 32.4264 37.5036 32.8552C36.9948 33.0701 36.7317 33.4656 36.7491 34.0484C36.7711 34.7861 36.7574 35.5182 36.7574 36.2531C36.7574 36.3702 36.7464 36.4873 36.74 36.6275H34.5079C34.5006 36.4901 34.4886 36.3619 34.4886 36.2338C34.4886 35.5348 34.4886 34.8368 34.4886 34.1378C34.4886 32.2936 35.3696 31.0534 37.147 30.5417C38.8382 30.0585 40.513 30.0991 42.0658 31.0405C43.1658 31.7054 43.6626 32.727 43.6636 34.0051L43.6645 36.6247Z" fill="#3F3115"/>
<path d="M44.4996 43.7073C41.3765 43.7073 38.7035 42.6396 36.5805 40.2854C36.3623 40.0439 36.4503 39.474 36.7345 39.3348C36.7835 39.3229 36.8345 39.322 36.8839 39.3321C36.9333 39.3421 36.9799 39.3628 37.0205 39.3929C38.5522 40.5399 40.2783 41.2177 42.1538 41.4934C45.4272 41.9766 48.488 41.4196 51.2517 39.5081C51.3975 39.4076 51.5387 39.1494 51.7651 39.3929C52.0401 39.6898 52.085 40.0153 51.8778 40.2569C50.7778 41.533 49.4248 42.4302 47.8647 43.0287C46.7897 43.4465 45.6516 43.6761 44.4996 43.7073Z" fill="#F7E36F"/>
<path d="M56.5024 35.7036C56.5024 34.101 56.5097 32.4974 56.4969 30.8948C56.4969 30.6071 56.5794 30.5131 56.8636 30.526C57.3906 30.5435 57.9177 30.5426 58.4448 30.526C58.6859 30.5195 58.784 30.5804 58.784 30.845C58.7766 34.0859 58.7766 37.3277 58.784 40.5704C58.784 40.847 58.6767 40.9263 58.4173 40.9208C57.9141 40.9088 57.409 40.9014 56.9076 40.9208C56.595 40.9346 56.4905 40.8286 56.4932 40.5123C56.507 38.9088 56.4996 37.3062 56.4996 35.7026L56.5024 35.7036Z" fill="#F7E36F"/>
<path d="M57.6767 26.3941C58.5099 26.4134 59.0773 27.0322 59.0517 27.8989C59.0333 28.6514 58.3917 29.2489 57.6097 29.2305C57.4244 29.226 57.2417 29.1849 57.0721 29.1095C56.9025 29.034 56.7493 28.9257 56.6213 28.7907C56.4934 28.6558 56.3931 28.4967 56.3262 28.3228C56.2593 28.1488 56.2271 27.9632 56.2315 27.7768C56.2359 27.5903 56.2768 27.4065 56.3518 27.2359C56.4268 27.0653 56.5345 26.9113 56.6687 26.7825C56.8029 26.6538 56.9609 26.5529 57.1339 26.4856C57.3068 26.4183 57.4913 26.386 57.6767 26.3904V26.3941Z" fill="#F7E36F"/>
</svg>
