<svg width="230" height="245" viewBox="0 0 230 245" fill="none" xmlns="http://www.w3.org/2000/svg">
<path d="M118.649 12.5381L111.352 12.5381L111.352 60.4257L118.649 60.4257L118.649 12.5381Z" fill="#FFB522"/>
<path d="M140.199 86.8785L89.7993 86.8785C86.0827 86.8785 83.0706 83.8665 83.0706 80.1499L83.0706 62.1377C83.0706 58.4211 86.0827 55.4092 89.7993 55.4092L140.199 55.4092C143.916 55.4092 146.928 58.4211 146.928 62.1377L146.928 80.1499C146.926 83.8665 143.914 86.8785 140.199 86.8785Z" fill="#FFB522"/>
<path d="M229.248 191.555C229.248 220.647 205.663 244.232 176.57 244.232L53.4281 244.232C24.455 244.232 0.750732 220.528 0.750732 191.555L0.750732 164.191C0.750732 112.643 42.9263 70.4668 94.4761 70.4668L135.524 70.4668C187.072 70.4668 229.249 112.642 229.249 164.191L229.248 191.555Z" fill="#FFB522"/>
<path d="M193.31 186.566C190.32 188.044 186.968 188.818 183.563 188.818L46.4404 188.818C43.0351 188.818 39.6835 188.044 36.6938 186.566C29.35 182.936 25.2059 175.606 26.2426 168.086L26.3186 167.54C29.8326 142.069 52.9009 122.487 81.1828 121.015C93.149 120.392 105.706 120.07 118.805 120.146C129.065 120.206 138.983 120.507 148.533 120.999C176.922 122.461 200.16 141.966 203.688 167.534C203.713 167.717 203.738 167.902 203.764 168.085C204.799 175.606 200.653 182.936 193.31 186.566Z" fill="url(#paint0_linear_104_754)"/>
<path d="M78.862 183.2C93.1423 183.2 104.719 171.624 104.719 157.344C104.719 143.064 93.1423 131.487 78.862 131.487C64.5816 131.487 53.0052 143.064 53.0052 157.344C53.0052 171.624 64.5816 183.2 78.862 183.2Z" fill="url(#paint1_radial_104_754)"/>
<path d="M78.8587 175.91C89.1087 175.91 97.4179 167.601 97.4179 157.351C97.4179 147.101 89.1087 138.792 78.8587 138.792C68.6088 138.792 60.2995 147.101 60.2995 157.351C60.2995 167.601 68.6088 175.91 78.8587 175.91Z" fill="#EEFDFF"/>
<path d="M78.8606 172.928C87.4693 172.928 94.448 165.949 94.448 157.34C94.448 148.732 87.4693 141.753 78.8606 141.753C70.2519 141.753 63.2732 148.732 63.2732 157.34C63.2732 165.949 70.2519 172.928 78.8606 172.928Z" fill="url(#paint2_linear_104_754)"/>
<path d="M88.8474 153.303C88.8474 156.493 86.2629 159.077 83.0737 159.077C79.8844 159.077 77.2999 156.491 77.2999 153.303C77.2999 150.116 79.8844 147.53 83.0737 147.53C86.2629 147.53 88.8474 150.116 88.8474 153.303Z" fill="#EEFDFF"/>
<path d="M76.5547 171.609C77.8274 171.609 78.8591 170.577 78.8591 169.304C78.8591 168.031 77.8274 167 76.5547 167C75.282 167 74.2502 168.031 74.2502 169.304C74.2502 170.577 75.282 171.609 76.5547 171.609Z" fill="#EEFDFF"/>
<path d="M70.8428 165.843C70.8428 166.479 70.3274 166.994 69.6913 166.994C69.0553 166.994 68.5399 166.479 68.5399 165.843C68.5399 165.207 69.0553 164.691 69.6913 164.691C70.3274 164.691 70.8428 165.208 70.8428 165.843Z" fill="#EEFDFF"/>
<path d="M148.713 183.2C162.994 183.2 174.57 171.624 174.57 157.344C174.57 143.064 162.994 131.487 148.713 131.487C134.433 131.487 122.856 143.064 122.856 157.344C122.856 171.624 134.433 183.2 148.713 183.2Z" fill="url(#paint3_radial_104_754)"/>
<path d="M148.711 175.91C158.961 175.91 167.27 167.601 167.27 157.351C167.27 147.101 158.961 138.792 148.711 138.792C138.461 138.792 130.152 147.101 130.152 157.351C130.152 167.601 138.461 175.91 148.711 175.91Z" fill="#EEFDFF"/>
<path d="M148.713 172.928C157.322 172.928 164.301 165.949 164.301 157.34C164.301 148.732 157.322 141.753 148.713 141.753C140.104 141.753 133.126 148.732 133.126 157.34C133.126 165.949 140.104 172.928 148.713 172.928Z" fill="url(#paint4_linear_104_754)"/>
<path d="M158.696 153.303C158.696 156.493 156.11 159.077 152.923 159.077C149.735 159.077 147.147 156.491 147.147 153.303C147.147 150.116 149.733 147.53 152.923 147.53C156.112 147.53 158.696 150.116 158.696 153.303Z" fill="#EEFDFF"/>
<path d="M146.407 171.609C147.679 171.609 148.711 170.577 148.711 169.304C148.711 168.031 147.679 167 146.407 167C145.134 167 144.102 168.031 144.102 169.304C144.102 170.577 145.134 171.609 146.407 171.609Z" fill="#EEFDFF"/>
<path d="M140.69 165.843C140.69 166.479 140.175 166.994 139.539 166.994C138.903 166.994 138.387 166.479 138.387 165.843C138.387 165.207 138.903 164.691 139.539 164.691C140.175 164.691 140.69 165.208 140.69 165.843Z" fill="#EEFDFF"/>
<path d="M124.348 9.35022C124.348 14.5132 120.162 18.7004 114.998 18.7004C109.835 18.7004 105.649 14.5147 105.649 9.35022C105.649 4.18727 109.835 -1.32977e-10 114.998 -2.96998e-10C120.162 -4.61044e-10 124.348 4.18578 124.348 9.35022Z" fill="#EE3F7A"/>
<path d="M121.495 5.70291C121.495 7.27741 120.218 8.55252 118.644 8.55252C117.069 8.55252 115.793 7.27592 115.793 5.70291C115.793 4.1284 117.069 2.85181 118.644 2.85181C120.218 2.8533 121.495 4.1284 121.495 5.70291Z" fill="white"/>
<path d="M195.507 100.439C195.63 104.803 192.067 110.024 187.986 110.47C184.16 110.888 181.105 106.979 177.954 102.949C174.849 98.9758 168.057 88.7691 170.763 85.8822C174.327 82.0763 195.213 90.141 195.507 100.439Z" fill="white"/>
<path d="M160.559 83.7974C162.354 83.7974 163.808 82.3429 163.808 80.5486C163.808 78.7544 162.354 77.2998 160.559 77.2998C158.765 77.2998 157.311 78.7544 157.311 80.5486C157.311 82.3429 158.765 83.7974 160.559 83.7974Z" fill="white"/>
<path d="M195.044 160.991C194.001 161.727 186.733 146.92 167.222 134.083C160.364 129.569 153.594 126.353 153.996 125.418C154.404 124.469 162.029 126.234 168.134 129.066C187.585 138.09 196.283 160.116 195.044 160.991Z" fill="white"/>
<path d="M145.08 64.7344C144.848 64.7672 144.699 63.4012 143.561 61.2905C143.561 61.2905 143.029 60.3028 142.421 59.4657C140.462 56.7695 133.822 56.8291 133.3 56.8336C122.958 56.9229 116.308 56.2675 116.311 56.3301C116.313 56.3822 121.163 56.2839 124.717 56.2124C134.744 56.0083 140.717 55.4691 143.278 58.1548C144.34 59.269 144.874 60.7199 144.874 60.7199C145.598 62.6892 145.357 64.6942 145.08 64.7344Z" fill="white"/>
<path d="M142.931 199.911C142.677 202.388 140.616 204.296 138.137 204.535L103.885 207.837C101.408 208.075 99.0182 206.599 98.2958 204.216C97.974 203.157 97.7267 202.065 97.5584 200.942C97.5122 200.632 97.5941 200.316 97.7878 200.067C97.9814 199.82 98.2675 199.664 98.5803 199.632L141.793 195.464C142.101 195.435 142.406 195.533 142.64 195.736C142.874 195.938 143.013 196.229 143.026 196.537C143.078 197.68 143.044 198.806 142.931 199.911Z" fill="#EEFDFF"/>
<path d="M142.932 199.917C141.837 210.535 133.396 219.264 122.368 220.318C111.491 221.371 101.667 214.626 98.4374 204.638C99.2999 206.773 101.543 208.073 103.883 207.839L138.145 204.541C140.62 204.295 142.673 202.393 142.932 199.917Z" fill="#F03561"/>
<defs>
<linearGradient id="paint0_linear_104_754" x1="114.596" y1="188.597" x2="115.965" y2="127.026" gradientUnits="userSpaceOnUse">
<stop stop-color="#030D14"/>
<stop offset="1" stop-color="#0B2F45"/>
</linearGradient>
<radialGradient id="paint1_radial_104_754" cx="0" cy="0" r="1" gradientUnits="userSpaceOnUse" gradientTransform="translate(78.8614 157.344) scale(25.5893 25.5889)">
<stop offset="0.1296" stop-color="#3280FC"/>
<stop offset="1"/>
</radialGradient>
<linearGradient id="paint2_linear_104_754" x1="63.272" y1="157.34" x2="94.448" y2="157.34" gradientUnits="userSpaceOnUse">
<stop stop-color="#030D14"/>
<stop offset="1" stop-color="#0B2F45"/>
</linearGradient>
<radialGradient id="paint3_radial_104_754" cx="0" cy="0" r="1" gradientUnits="userSpaceOnUse" gradientTransform="translate(148.713 157.344) scale(25.5893 25.5889)">
<stop offset="0.1296" stop-color="#3280FC"/>
<stop offset="1"/>
</radialGradient>
<linearGradient id="paint4_linear_104_754" x1="133.125" y1="157.34" x2="164.301" y2="157.34" gradientUnits="userSpaceOnUse">
<stop stop-color="#030D14"/>
<stop offset="1" stop-color="#0B2F45"/>
</linearGradient>
</defs>
</svg>
