<svg width="34" height="38" viewBox="0 0 34 38" fill="none" xmlns="http://www.w3.org/2000/svg">
<path d="M28.1552 20.0817C28.1363 16.9669 29.5951 14.6194 32.5411 12.8884C30.8934 10.6049 28.4007 9.34892 25.1149 9.10686C22.0037 8.86937 18.5999 10.8606 17.3535 10.8606C16.0363 10.8606 13.0243 9.18907 10.6544 9.18907C5.76338 9.26214 0.565521 12.9615 0.565521 20.4881C0.565521 22.7123 0.985693 25.0096 1.82604 27.3754C2.94964 30.4902 7.00028 38.1218 11.2256 37.9985C13.435 37.9483 14.9977 36.4822 17.8728 36.4822C20.6629 36.4822 22.1076 37.9985 24.572 37.9985C28.8351 37.9391 32.4986 31.0017 33.5655 27.8778C27.8484 25.2699 28.1552 20.2415 28.1552 20.0817ZM23.1934 6.15192C25.587 3.40251 25.3698 0.899725 25.299 0C23.184 0.118745 20.7385 1.39297 19.3458 2.9595C17.8114 4.6402 16.9097 6.71825 17.1033 9.06118C19.3883 9.23017 21.475 8.09295 23.1934 6.15192Z" fill="white"/>
</svg>
