<svg width="39" height="39" viewBox="0 0 39 39" fill="none" xmlns="http://www.w3.org/2000/svg">
<path d="M26.0507 4.10298C25.9753 4.57443 25.9376 5.04589 25.9376 5.51734C25.9376 9.76042 29.3697 13.1907 33.594 13.1907C34.0654 13.1907 34.518 13.136 34.9895 13.0606V28.2772C34.9895 34.672 31.2178 38.4625 24.8061 38.4625H10.8718C4.45815 38.4625 0.686523 34.672 0.686523 28.2772V14.3241C0.686523 7.91232 4.45815 4.10298 10.8718 4.10298H26.0507ZM26.4298 15.5687C25.9187 15.5121 25.4114 15.7384 25.1078 16.1533L20.546 22.0559L15.3204 17.9448C14.9998 17.6997 14.6227 17.6035 14.2455 17.6431C13.8702 17.6997 13.5308 17.9052 13.3026 18.207L7.72249 25.4692L7.60746 25.639C7.28687 26.2405 7.43773 27.0137 8.00348 27.4305C8.26749 27.6002 8.55036 27.7134 8.87095 27.7134C9.30657 27.7322 9.71957 27.504 9.98358 27.1476L14.717 21.0546L20.0915 25.0921L20.2613 25.2033C20.8647 25.5239 21.619 25.375 22.0528 24.8073L27.5028 17.7751L27.4274 17.8128C27.7291 17.398 27.7857 16.8699 27.5782 16.3985C27.3727 15.927 26.9182 15.6064 26.4298 15.5687ZM33.8582 0.745667C36.3663 0.745667 38.403 2.78234 38.403 5.29048C38.403 7.79861 36.3663 9.83529 33.8582 9.83529C31.35 9.83529 29.3134 7.79861 29.3134 5.29048C29.3134 2.78234 31.35 0.745667 33.8582 0.745667Z" fill="#392147"/>
</svg>
