<svg width="24" height="25" viewBox="0 0 24 25" fill="none" xmlns="http://www.w3.org/2000/svg">
<path d="M20.0002 11.499H22.0002C22.0002 6.369 18.1272 2.5 12.9902 2.5V4.5C17.0522 4.5 20.0002 7.443 20.0002 11.499Z" fill="white"/>
<path d="M12.9998 8.49999C15.1028 8.49999 15.9998 9.39699 15.9998 11.5H17.9998C17.9998 8.27499 16.2248 6.49999 12.9998 6.49999V8.49999ZM16.4218 13.943C16.2296 13.7683 15.9771 13.6752 15.7176 13.6832C15.4581 13.6912 15.2118 13.7998 15.0308 13.986L12.6378 16.447C12.0618 16.337 10.9038 15.976 9.71179 14.787C8.51979 13.594 8.15879 12.433 8.05179 11.861L10.5108 9.46699C10.6972 9.28612 10.8059 9.03982 10.814 8.7802C10.822 8.52059 10.7287 8.26804 10.5538 8.07599L6.85879 4.01299C6.68384 3.82035 6.44067 3.7035 6.18095 3.68725C5.92122 3.67101 5.66539 3.75665 5.46779 3.92599L3.29779 5.78699C3.1249 5.96051 3.02171 6.19145 3.00779 6.43599C2.99279 6.68599 2.70679 12.608 7.29879 17.202C11.3048 21.207 16.3228 21.5 17.7048 21.5C17.9068 21.5 18.0308 21.494 18.0638 21.492C18.3083 21.4783 18.5391 21.3747 18.7118 21.201L20.5718 19.03C20.7413 18.8325 20.8271 18.5768 20.811 18.317C20.795 18.0573 20.6783 17.8141 20.4858 17.639L16.4218 13.943Z" fill="white"/>
</svg>
