<svg width="103" height="104" viewBox="0 0 103 104" fill="none" xmlns="http://www.w3.org/2000/svg">
<path fill-rule="evenodd" clip-rule="evenodd" d="M17.1667 25.9015C19.4431 25.9015 21.6263 24.9972 23.236 23.3875C24.8457 21.7778 25.75 19.5946 25.75 17.3182C25.75 15.0418 24.8457 12.8586 23.236 11.2489C21.6263 9.63918 19.4431 8.73486 17.1667 8.73486C14.8902 8.73486 12.707 9.63918 11.0973 11.2489C9.48765 12.8586 8.58334 15.0418 8.58334 17.3182C8.58334 19.5946 9.48765 21.7778 11.0973 23.3875C12.707 24.9972 14.8902 25.9015 17.1667 25.9015ZM21.4583 90.2765C24.873 90.2765 28.1478 88.9201 30.5623 86.5055C32.9769 84.091 34.3333 80.8162 34.3333 77.4015C34.3333 73.9869 32.9769 70.7121 30.5623 68.2975C28.1478 65.883 24.873 64.5265 21.4583 64.5265C18.0437 64.5265 14.7689 65.883 12.3543 68.2975C9.93981 70.7121 8.58334 73.9869 8.58334 77.4015C8.58334 80.8162 9.93981 84.091 12.3543 86.5055C14.7689 88.9201 18.0437 90.2765 21.4583 90.2765ZM81.5417 94.5682C84.9563 94.5682 88.2311 93.2117 90.6457 90.7972C93.0602 88.3827 94.4167 85.1079 94.4167 81.6932C94.4167 78.2785 93.0602 75.0037 90.6457 72.5892C88.2311 70.1747 84.9563 68.8182 81.5417 68.8182C78.127 68.8182 74.8522 70.1747 72.4377 72.5892C70.0231 75.0037 68.6667 78.2785 68.6667 81.6932C68.6667 85.1079 70.0231 88.3827 72.4377 90.7972C74.8522 93.2117 78.127 94.5682 81.5417 94.5682ZM47.2083 60.2349C51.7612 60.2349 56.1276 58.4262 59.347 55.2069C62.5664 51.9875 64.375 47.6211 64.375 43.0682C64.375 38.5153 62.5664 34.1489 59.347 30.9295C56.1276 27.7102 51.7612 25.9015 47.2083 25.9015C42.6555 25.9015 38.289 27.7102 35.0697 30.9295C31.8503 34.1489 30.0417 38.5153 30.0417 43.0682C30.0417 47.6211 31.8503 51.9875 35.0697 55.2069C38.289 58.4262 42.6555 60.2349 47.2083 60.2349ZM72.9583 25.9015C75.2348 25.9015 77.418 24.9972 79.0277 23.3875C80.6374 21.7778 81.5417 19.5946 81.5417 17.3182C81.5417 15.0418 80.6374 12.8586 79.0277 11.2489C77.418 9.63918 75.2348 8.73486 72.9583 8.73486C70.6819 8.73486 68.4987 9.63918 66.889 11.2489C65.2793 12.8586 64.375 15.0418 64.375 17.3182C64.375 19.5946 65.2793 21.7778 66.889 23.3875C68.4987 24.9972 70.6819 25.9015 72.9583 25.9015Z" fill="white" stroke="white" stroke-width="2" stroke-linecap="round" stroke-linejoin="round"/>
<path d="M23.6042 23.7559L32.1875 32.3392M64.375 25.9017L60.0833 30.1934M72.9583 72.0371L60.0833 55.9434M30.0417 66.6725L38.625 58.0892" stroke="white" stroke-width="2" stroke-linecap="round" stroke-linejoin="round"/>
</svg>
