<svg width="86" height="87" viewBox="0 0 86 87" fill="none" xmlns="http://www.w3.org/2000/svg">
<path fill-rule="evenodd" clip-rule="evenodd" d="M43 4.63037C42.2872 4.63037 41.6037 4.91352 41.0997 5.41752C40.5957 5.92153 40.3125 6.6051 40.3125 7.31787V46.6378L34.2925 39.6109C34.0629 39.3426 33.7827 39.1223 33.4679 38.9624C33.1531 38.8024 32.8098 38.7061 32.4578 38.6788C32.1057 38.6515 31.7518 38.6938 31.4161 38.8033C31.0804 38.9128 30.7696 39.0874 30.5014 39.317C30.2331 39.5467 30.0128 39.8269 29.8528 40.1417C29.6929 40.4565 29.5965 40.7997 29.5693 41.1518C29.542 41.5038 29.5843 41.8578 29.6938 42.1935C29.8033 42.5292 29.9779 42.84 30.2075 43.1082L40.9575 55.6499C41.2098 55.9449 41.523 56.1818 41.8756 56.3442C42.2282 56.5066 42.6118 56.5907 43 56.5907C43.3882 56.5907 43.7718 56.5066 44.1244 56.3442C44.477 56.1818 44.7902 55.9449 45.0425 55.6499L55.7925 43.1082C56.0222 42.84 56.1967 42.5292 56.3062 42.1935C56.4157 41.8578 56.4581 41.5038 56.4308 41.1518C56.4035 40.7997 56.3071 40.4565 56.1472 40.1417C55.9873 39.8269 55.7669 39.5467 55.4987 39.317C55.2305 39.0874 54.9196 38.9128 54.5839 38.8033C54.2483 38.6938 53.8943 38.6515 53.5422 38.6788C53.1902 38.7061 52.847 38.8024 52.5322 38.9624C52.2174 39.1223 51.9372 39.3426 51.7075 39.6109L45.6875 46.6342V7.31787C45.6875 6.6051 45.4044 5.92153 44.9004 5.41752C44.3964 4.91352 43.7128 4.63037 43 4.63037Z" fill="white"/>
<path d="M51.0625 32.4014V33.7559C52.7373 33.1606 54.5618 33.1357 56.2522 33.685C57.9426 34.2343 59.4039 35.327 60.4088 36.793C61.4137 38.2591 61.9058 40.0162 61.8084 41.791C61.711 43.5657 61.0296 45.2584 59.8704 46.6057L49.1204 59.1474C48.3635 60.03 47.4246 60.7385 46.3682 61.2243C45.3118 61.71 44.1628 61.9615 43 61.9615C41.8373 61.9615 40.6883 61.71 39.6319 61.2243C38.5754 60.7385 37.6366 60.03 36.8797 59.1474L26.1297 46.6057C24.9736 45.2576 24.295 43.5656 24.1992 41.7923C24.1034 40.019 24.5957 38.2637 25.5997 36.7989C26.6038 35.3341 28.0633 34.2418 29.7518 33.6915C31.4403 33.1413 33.2632 33.1639 34.9375 33.7559V32.4014H28.6667C18.533 32.4014 13.4626 32.4014 10.3164 35.5511C7.16669 38.6973 7.16669 43.7677 7.16669 53.9014V57.4847C7.16669 67.6184 7.16669 72.6888 10.3164 75.835C13.4626 78.9847 18.533 78.9847 28.6667 78.9847H57.3334C67.467 78.9847 72.5374 78.9847 75.6836 75.835C78.8334 72.6888 78.8334 67.6184 78.8334 57.4847V53.9014C78.8334 43.7677 78.8334 38.6973 75.6836 35.5511C72.5374 32.4014 67.467 32.4014 57.3334 32.4014H51.0625Z" fill="white"/>
</svg>
