<svg width="14" height="11" viewBox="0 0 14 11" fill="none" xmlns="http://www.w3.org/2000/svg">
<path d="M13.4062 5.82031L11.1562 10.3203C11.0391 10.5781 10.7812 10.7188 10.4766 10.7188H1.5C0.65625 10.7188 0 10.0625 0 9.21875V1.71875C0 0.898438 0.65625 0.21875 1.5 0.21875H4.24219C4.64062 0.21875 5.01562 0.382812 5.29688 0.664062L6.44531 1.71875H9.75C10.5703 1.71875 11.25 2.39844 11.25 3.21875V3.96875H10.125V3.21875C10.125 3.03125 9.9375 2.84375 9.75 2.84375H6L4.5 1.46094C4.42969 1.39062 4.33594 1.34375 4.24219 1.34375H1.5C1.28906 1.34375 1.125 1.53125 1.125 1.71875V8.46875L2.78906 5.14062C2.90625 4.88281 3.16406 4.71875 3.44531 4.71875H12.75C13.2891 4.71875 13.6641 5.30469 13.4062 5.82031Z" fill="url(#paint0_linear_76_103)"/>
<defs>
<linearGradient id="paint0_linear_76_103" x1="7" y1="-1.03125" x2="7" y2="10.9257" gradientUnits="userSpaceOnUse">
<stop stop-color="#40254F"/>
<stop offset="1" stop-color="#1A0E24"/>
</linearGradient>
</defs>
</svg>
