<svg width="41" height="42" viewBox="0 0 41 42" fill="none" xmlns="http://www.w3.org/2000/svg">
<circle cx="20.5" cy="20.6516" r="20.5" fill="url(#paint0_linear_1_146)"/>
<path d="M11.25 24.8526C10.5326 25.2668 10.2867 26.1842 10.701 26.9016C11.1152 27.6191 12.0326 27.8649 12.75 27.4506L11.25 24.8526ZM30.7694 16.5398C30.9838 15.7396 30.5089 14.9171 29.7087 14.7027L16.6687 11.2087C15.8685 10.9943 15.046 11.4691 14.8316 12.2693C14.6172 13.0695 15.0921 13.892 15.8923 14.1064L27.4834 17.2123L24.3776 28.8034C24.1631 29.6036 24.638 30.4261 25.4382 30.6405C26.2384 30.8549 27.0609 30.38 27.2753 29.5798L30.7694 16.5398ZM12.75 27.4506L30.0705 17.4506L28.5705 14.8526L11.25 24.8526L12.75 27.4506Z" fill="#F5F5F7"/>
<defs>
<linearGradient id="paint0_linear_1_146" x1="20.5" y1="0.151611" x2="20.5" y2="41.1516" gradientUnits="userSpaceOnUse">
<stop stopColor="#40254F"/>
<stop offset="1" stopColor="#1A0E24"/>
</linearGradient>
</defs>
</svg>
