<svg width="16" height="19" viewBox="0 0 16 19" fill="none" xmlns="http://www.w3.org/2000/svg">
<path fill-rule="evenodd" clip-rule="evenodd" d="M0.459385 7.13725C0.61186 5.29452 1.45142 3.57643 2.81152 2.32382C4.17161 1.07121 5.95286 0.375602 7.80189 0.375H8.19789C10.0469 0.375602 11.8282 1.07121 13.1883 2.32382C14.5483 3.57643 15.3879 5.29452 15.5404 7.13725C15.7096 9.19462 15.0744 11.2375 13.7685 12.8362L9.37489 18.2097C9.20836 18.4135 8.9986 18.5777 8.7608 18.6905C8.52299 18.8033 8.26308 18.8618 7.99989 18.8618C7.73669 18.8618 7.47678 18.8033 7.23897 18.6905C7.00117 18.5777 6.79141 18.4135 6.62489 18.2097L2.23222 12.8362C0.925933 11.2376 0.29044 9.19475 0.459385 7.13725ZM7.99989 3.8125C6.84509 3.8125 5.73759 4.27124 4.92102 5.08781C4.10446 5.90437 3.64572 7.01187 3.64572 8.16667C3.64572 9.32146 4.10446 10.429 4.92102 11.2455C5.73759 12.0621 6.84509 12.5208 7.99989 12.5208C9.15468 12.5208 10.2622 12.0621 11.0787 11.2455C11.8953 10.429 12.3541 9.32146 12.3541 8.16667C12.3541 7.01187 11.8953 5.90437 11.0787 5.08781C10.2622 4.27124 9.15468 3.8125 7.99989 3.8125Z" fill="url(#paint0_linear_44_106)"/>
<defs>
<linearGradient id="paint0_linear_44_106" x1="7.99993" y1="0.375" x2="7.99993" y2="18.8618" gradientUnits="userSpaceOnUse">
<stop stop-color="#40254F"/>
<stop offset="1" stop-color="#1A0E24"/>
</linearGradient>
</defs>
</svg>
