<svg width="32" height="33" viewBox="0 0 32 33" fill="none" xmlns="http://www.w3.org/2000/svg">
<path d="M7.60945 10.3013L10.2611 7.85792C10.3547 7.77112 10.4646 7.7038 10.5844 7.65988C10.7042 7.61596 10.8316 7.59632 10.959 7.60208C11.0865 7.60785 11.2115 7.63891 11.3269 7.69347C11.4422 7.74802 11.5456 7.82499 11.6311 7.91989L13.4607 9.94715C13.3723 10.0622 13.0983 10.3278 12.7448 10.7705L11.6576 12.1957C11.629 12.2307 11.6052 12.2695 11.5869 12.3108C11.2851 12.8438 11.097 13.4337 11.0346 14.0433C10.9722 14.6528 11.0369 15.2687 11.2245 15.8519C11.6546 17.0297 12.3364 18.0992 13.222 18.9857C14.0374 19.9436 15.0713 20.6906 16.236 21.1635C16.7849 21.3809 17.3777 21.4639 17.965 21.4054C18.5523 21.3468 19.1171 21.1486 19.6124 20.8271L21.115 19.8444C21.5835 19.5346 21.8751 19.2779 21.9989 19.1982L23.8285 21.19C23.9168 21.2827 23.9857 21.3921 24.0309 21.5119C24.0762 21.6317 24.097 21.7594 24.0921 21.8874C24.0871 22.0154 24.0565 22.1411 24.0022 22.257C23.9478 22.3729 23.8707 22.4767 23.7755 22.5622L21.1239 25.0144C20.3726 25.6961 18.8258 25.7669 17.1199 25.2534C15.5089 24.7738 14.036 23.9147 12.8243 22.7481L9.16507 18.8087C8.10629 17.5006 7.37314 15.9592 7.0261 14.3115C6.66371 12.5675 6.85816 11.0272 7.60945 10.3013ZM6.4781 9.115C5.02855 10.4429 4.96668 12.6561 5.39093 14.6568C5.77814 16.6142 6.65387 18.4415 7.93649 19.9684L11.5692 23.9344C12.9719 25.3392 14.7088 26.3629 16.6161 26.9089C18.596 27.5109 20.7703 27.6259 22.2199 26.2892L24.8715 23.8458C25.3844 23.3699 25.6889 22.7104 25.7187 22.0107C25.7485 21.3111 25.5012 20.6279 25.0306 20.11L23.2363 18.1182C23.007 17.8408 22.6986 17.6401 22.3524 17.5427C22.0102 17.4762 21.6556 17.526 21.3448 17.6844C20.9482 17.9167 20.5726 18.1833 20.2223 18.4811L18.7286 19.4726C18.4547 19.6591 18.1372 19.771 17.8071 19.7974C17.4771 19.8238 17.1458 19.7637 16.8459 19.6231C15.9315 19.2223 15.1211 18.6165 14.4771 17.8526C13.765 17.1347 13.2109 16.2752 12.8508 15.3296C12.7174 14.9655 12.6672 14.5761 12.7039 14.19C12.7406 13.8039 12.8633 13.431 13.0629 13.0987L14.1148 11.7797C14.4381 11.4506 14.7338 11.0953 14.9986 10.7173C15.1808 10.4208 15.2586 10.0718 15.2196 9.72584C15.1577 9.3634 14.9847 9.02924 14.7246 8.76975L12.8597 6.82216C12.3845 6.30843 11.726 6.00345 11.0274 5.97361C10.3289 5.94376 9.64682 6.19147 9.12971 6.66281L6.4781 9.115Z" fill="#C4C4C4"/>
<path d="M7.78631 7.88449C7.63973 8.04716 7.55859 8.2585 7.55859 8.47762C7.55859 8.69675 7.63973 8.90808 7.78631 9.07075L11.4455 13.0633C11.6024 13.2163 11.8104 13.3056 12.0292 13.3137C12.2481 13.3219 12.4621 13.2484 12.6299 13.1076C12.7107 13.0338 12.7762 12.9449 12.8227 12.8457C12.8691 12.7466 12.8955 12.6393 12.9004 12.5299C12.9054 12.4205 12.8887 12.3112 12.8514 12.2083C12.8141 12.1054 12.7568 12.0109 12.683 11.9302L8.97954 7.93761C8.9057 7.85402 8.81582 7.78615 8.71526 7.73806C8.61469 7.68997 8.5055 7.66264 8.39417 7.65768C8.28284 7.65273 8.17166 7.67025 8.06723 7.70922C7.9628 7.74818 7.86727 7.80779 7.78631 7.88449Z" fill="#C4C4C4"/>
<path d="M18.7726 19.8446C18.6261 20.0072 18.5449 20.2186 18.5449 20.4377C18.5449 20.6568 18.6261 20.8682 18.7726 21.0308L22.4407 25.0234C22.5907 25.1866 22.7993 25.2834 23.0206 25.2925C23.2419 25.3016 23.4578 25.2223 23.6207 25.0721C23.7836 24.9218 23.8803 24.7129 23.8894 24.4912C23.8985 24.2696 23.8193 24.0534 23.6693 23.8902L19.9659 19.8977C19.892 19.8141 19.8022 19.7462 19.7016 19.6981C19.601 19.6501 19.4918 19.6227 19.3805 19.6178C19.2692 19.6128 19.158 19.6303 19.0536 19.6693C18.9491 19.7083 18.8536 19.7679 18.7726 19.8446Z" fill="#C4C4C4"/>
<path d="M19.214 9.41598C19.0924 9.52867 19.0071 9.67523 18.9692 9.83682C18.9314 9.99842 18.9426 10.1677 19.0015 10.3228C19.0605 10.478 19.1644 10.6119 19.2999 10.7074C19.4354 10.803 19.5964 10.8558 19.762 10.859C20.2842 10.8842 20.7751 11.1153 21.1278 11.5017C21.4805 11.8881 21.6663 12.3985 21.6447 12.9216C21.6406 13.0309 21.6581 13.1399 21.6961 13.2424C21.7341 13.345 21.7919 13.439 21.8662 13.5191C21.9404 13.5993 22.0298 13.664 22.129 13.7096C22.2283 13.7551 22.3355 13.7807 22.4446 13.7848C22.5537 13.7888 22.6625 13.7713 22.7649 13.7333C22.8673 13.6952 22.9611 13.6373 23.0412 13.5629C23.1212 13.4886 23.1858 13.3991 23.2313 13.2997C23.2768 13.2003 23.3023 13.0929 23.3064 12.9836C23.3365 12.4951 23.2675 12.0055 23.1034 11.5445C22.9394 11.0834 22.6837 10.6605 22.3518 10.3012C21.6958 9.59334 20.7874 9.17339 19.8239 9.13269C19.5913 9.14298 19.3721 9.24478 19.214 9.41598Z" fill="#C4C4C4"/>
<path d="M19.3042 5.93692C19.1973 6.0554 19.1267 6.20218 19.1009 6.35974C19.075 6.5173 19.0949 6.67899 19.1583 6.82551C19.2216 6.97204 19.3258 7.09721 19.4582 7.18609C19.5906 7.27498 19.7458 7.32382 19.9052 7.32679C20.6247 7.35637 21.3312 7.5279 21.9844 7.83156C22.6375 8.13521 23.2244 8.56501 23.7113 9.09631C24.1983 9.62761 24.5757 10.25 24.822 10.9277C25.0683 11.6054 25.1786 12.3251 25.1466 13.0456C25.1342 13.2747 25.2112 13.4997 25.3612 13.6731C25.5113 13.8465 25.7227 13.9548 25.9509 13.9751C26.1853 13.9751 26.4101 13.8819 26.5759 13.7159C26.7417 13.5498 26.8348 13.3247 26.8348 13.0899C26.8738 12.1498 26.7268 11.2113 26.4023 10.3283C26.0778 9.44537 25.5821 8.63542 24.9438 7.94509C24.3055 7.25477 23.5372 6.6977 22.6831 6.30596C21.829 5.91421 20.9059 5.69553 19.9671 5.66249C19.8431 5.65573 19.7193 5.67687 19.6046 5.72436C19.4898 5.77185 19.3872 5.84448 19.3042 5.93692Z" fill="#C4C4C4"/>
<path d="M17.7538 13.4174C17.6731 13.4918 17.6079 13.5814 17.5618 13.6811C17.5156 13.7807 17.4896 13.8885 17.4851 13.9982C17.4806 14.108 17.4977 14.2175 17.5354 14.3207C17.5732 14.4238 17.6309 14.5184 17.7052 14.5992C17.7794 14.68 17.8689 14.7454 17.9684 14.7916C18.0679 14.8377 18.1755 14.8638 18.2851 14.8684C18.3946 14.8729 18.504 14.8557 18.607 14.8179C18.7099 14.7801 18.8045 14.7223 18.8851 14.6479L19.548 14.0371C19.711 13.8868 19.8076 13.6779 19.8167 13.4563C19.8258 13.2346 19.7467 13.0184 19.5966 12.8553C19.4466 12.6921 19.238 12.5953 19.0167 12.5862C18.7954 12.577 18.5796 12.6563 18.4167 12.8066L17.7538 13.4174Z" fill="#C4C4C4"/>
</svg>
