<svg width="29" height="30" viewBox="0 0 29 30" fill="none" xmlns="http://www.w3.org/2000/svg">
<path d="M16.1039 14.36L21.1134 9.43169L4.93293 0.485039C3.86056 -0.0849598 2.85594 -0.164959 1.975 0.458373L16.1039 14.36ZM21.9673 20.13L27.175 17.2483C28.1915 16.6883 28.7488 15.895 28.7488 15.015C28.7488 14.1367 28.1915 13.3417 27.1767 12.7817L22.462 10.1767L17.1543 15.3967L21.9673 20.13ZM1.10423 1.67004C0.995803 1.99837 0.934814 2.36504 0.934814 2.7667V27.275C0.934814 27.91 1.07712 28.4567 1.33463 28.8917L15.0519 15.395L1.10423 1.67004ZM16.1039 16.4284L2.46291 29.85C2.7238 29.9483 3.00503 30 3.3015 30C3.83006 30 4.38065 29.8467 4.9414 29.54L20.6205 20.8783L16.1039 16.4284Z" fill="white"/>
</svg>
