<svg width="26" height="29" viewBox="0 0 26 29" fill="none" xmlns="http://www.w3.org/2000/svg">
<path fill-rule="evenodd" clip-rule="evenodd" d="M13.9894 28.0758L13.9749 28.0784L13.8811 28.1246L13.8547 28.1299L13.8362 28.1246L13.7425 28.0784C13.7284 28.074 13.7178 28.0762 13.7108 28.085L13.7055 28.0982L13.683 28.6635L13.6896 28.6899L13.7029 28.707L13.8402 28.8048L13.86 28.8101L13.8759 28.8048L14.0132 28.707L14.0291 28.6859L14.0344 28.6635L14.0119 28.0995C14.0084 28.0855 14.0009 28.0775 13.9894 28.0758ZM14.3394 27.9265L14.3223 27.9292L14.0779 28.052L14.0647 28.0652L14.0608 28.0797L14.0845 28.6476L14.0911 28.6635L14.1017 28.6727L14.3672 28.7955C14.3839 28.7999 14.3967 28.7964 14.4055 28.785L14.4108 28.7665L14.3659 27.9556C14.3614 27.9397 14.3526 27.9301 14.3394 27.9265ZM13.3951 27.9292C13.3893 27.9257 13.3824 27.9245 13.3757 27.926C13.3691 27.9275 13.3632 27.9314 13.3595 27.9371L13.3515 27.9556L13.3066 28.7665C13.3075 28.7823 13.315 28.7929 13.3291 28.7982L13.3489 28.7955L13.6144 28.6727L13.6276 28.6621L13.6329 28.6476L13.6553 28.0797L13.6513 28.0639L13.6381 28.0507L13.3951 27.9292Z" fill="#3F3115"/>
<path fill-rule="evenodd" clip-rule="evenodd" d="M11.2251 2.53154e-08C9.43499 0.000152525 7.67088 0.428375 6.07994 1.24894C4.489 2.06951 3.11737 3.25862 2.07948 4.71708C1.04159 6.17553 0.367537 7.86104 0.113562 9.63296C-0.140413 11.4049 0.0330525 13.2119 0.619487 14.9031C1.20592 16.5944 2.18832 18.1209 3.48472 19.3553C4.78111 20.5896 6.35392 21.4961 8.07191 21.9991C9.7899 22.502 11.6033 22.5868 13.3607 22.2464C15.1181 21.9061 16.7687 21.1503 18.1747 20.0424L22.9979 24.8654C23.247 25.106 23.5806 25.2391 23.9269 25.2361C24.2732 25.2331 24.6044 25.0942 24.8493 24.8493C25.0942 24.6045 25.2331 24.2732 25.2361 23.927C25.2391 23.5807 25.106 23.2471 24.8654 22.998L20.0422 18.1749C21.347 16.5197 22.1595 14.5304 22.3866 12.435C22.6136 10.3395 22.2462 8.22247 21.3262 6.32609C20.4062 4.42972 18.9709 2.83065 17.1845 1.71188C15.3982 0.593118 13.3329 -0.0001415 11.2251 2.53154e-08ZM2.64047 11.2256C2.64047 8.94893 3.54492 6.76548 5.15485 5.15561C6.76478 3.54574 8.94831 2.64132 11.2251 2.64132C13.5019 2.64132 15.6854 3.54574 17.2953 5.15561C18.9053 6.76548 19.8097 8.94893 19.8097 11.2256C19.8097 13.5023 18.9053 15.6858 17.2953 17.2956C15.6854 18.9055 13.5019 19.8099 11.2251 19.8099C8.94831 19.8099 6.76478 18.9055 5.15485 17.2956C3.54492 15.6858 2.64047 13.5023 2.64047 11.2256Z" fill="#3F3115"/>
</svg>
