<svg width="105" height="75" viewBox="0 0 105 75" fill="none" xmlns="http://www.w3.org/2000/svg">
<path d="M95.4402 49.8149V24.487C97.1592 24.487 98.8079 25.1718 100.023 26.3905C101.239 27.6093 101.922 29.2623 101.922 30.986V43.317C101.922 45.0406 101.239 46.6937 100.023 47.9124C98.8079 49.1312 97.1592 49.8159 95.4402 49.8159V49.8149Z" fill="white"/>
<path d="M69.2222 71.3792H35.7778C23.2176 71.3792 12.9986 61.1332 12.9986 48.54V25.7631C12.9986 13.1698 23.2176 2.92383 35.7778 2.92383H69.2222C81.7823 2.92383 92.0014 13.1698 92.0014 25.7631V48.54C92.0033 61.1332 81.7843 71.3792 69.2222 71.3792ZM35.7778 10.0057C27.1123 10.0057 20.0618 17.0748 20.0618 25.7631V48.54C20.0618 57.2282 27.1123 64.2974 35.7778 64.2974H69.2222C77.8876 64.2974 84.9382 57.2282 84.9382 48.54V25.7631C84.9382 17.0748 77.8876 10.0057 69.2222 10.0057H35.7778Z" fill="white"/>
<path d="M9.55987 24.4878V49.8157C7.84079 49.8157 6.19212 49.131 4.97654 47.9122C3.76097 46.6934 3.07806 45.0404 3.07806 43.3168V30.9857C3.07832 29.2623 3.76134 27.6095 4.97688 26.3909C6.19243 25.1724 7.84096 24.4878 9.55987 24.4878Z" fill="white"/>
<path d="M24.6944 39.8592C25.0522 40.0541 25.3254 40.2082 25.6025 40.3563C27.0851 41.1449 28.664 41.3155 30.2993 41.065C31.2258 40.9227 31.8267 40.3261 31.9404 39.5053C32.0542 38.6846 31.6215 37.9232 30.7689 37.5216C29.3455 36.851 27.9115 36.2018 26.4911 35.5292C25.4032 35.0135 24.6944 34.1713 24.394 33.0015C23.8924 31.0617 25.0036 29.0927 27.0015 28.3752C28.3237 27.9005 29.6965 27.8761 31.0635 28.0487C31.8617 28.1461 32.6394 28.4113 33.4279 28.5955C33.6651 28.6511 33.7487 28.7817 33.7429 29.0293C33.7274 29.7302 33.7429 30.431 33.7361 31.1319C33.7361 31.2401 33.7147 31.3473 33.6982 31.5062C33.4473 31.3961 33.2432 31.3044 33.038 31.2138C31.5428 30.5704 29.9921 30.354 28.3879 30.6484C28.0634 30.7059 27.7529 30.825 27.473 30.9993C26.5874 31.5667 26.6117 32.6565 27.5353 33.1634C28.2926 33.5747 29.0908 33.9032 29.8686 34.2736C30.694 34.6636 31.5447 35.0145 32.3332 35.4717C33.9422 36.4016 34.7832 38.2381 34.4721 39.9771C34.3193 40.863 33.8987 41.6804 33.2673 42.3187C32.6359 42.957 31.8242 43.3854 30.9419 43.5458C29.0724 43.8997 27.229 43.7788 25.4372 43.0994C24.7994 42.8586 24.6594 42.6461 24.6517 41.9579C24.6517 41.4227 24.6517 40.8856 24.6517 40.3514C24.6575 40.215 24.6769 40.0824 24.6944 39.8592Z" fill="white"/>
<path d="M72.2546 38.6779C72.4325 39.8282 73.5185 40.9053 74.6851 41.1481C75.8518 41.3908 76.8911 41.1042 77.7739 40.2707C77.9314 40.1381 78.1283 40.0616 78.3339 40.0534C78.9687 40.0261 79.6046 40.0417 80.2394 40.0456C80.3853 40.0456 80.5311 40.066 80.7255 40.0816C80.462 40.7886 80.0468 41.4288 79.5093 41.9571C76.5411 45.018 71.2172 43.7556 69.9689 39.679C68.9062 36.2088 71.0383 32.8331 74.3886 32.2385C76.3904 31.8817 78.1803 32.413 79.5822 33.9385C80.36 34.7856 80.7994 35.7906 80.5671 36.976C80.3619 38.0248 79.5949 38.6653 78.5254 38.6721C76.6072 38.6857 74.688 38.677 72.7699 38.6779H72.2546ZM72.345 36.7235H73.428C74.8387 36.7235 76.2475 36.7293 77.6582 36.7235C78.1851 36.7235 78.364 36.393 78.0957 35.9437C78.0418 35.8575 77.9817 35.7754 77.9158 35.698C76.7705 34.2992 74.5228 34.1842 73.1889 35.4592C72.8068 35.8035 72.5167 36.2381 72.345 36.7235Z" fill="white"/>
<path d="M65.1923 35.8287C65.1923 33.4736 65.2001 31.1185 65.1846 28.7634C65.1846 28.3852 65.3051 28.276 65.6639 28.2975C66.184 28.3238 66.7051 28.3238 67.2253 28.2975C67.5558 28.2809 67.6326 28.4115 67.6307 28.7157C67.6219 31.0327 67.6249 33.3498 67.6249 35.6669C67.6249 38.0603 67.6249 40.4537 67.6249 42.8472C67.6249 43.4028 67.6249 43.4028 67.0824 43.4038H65.7125C65.2011 43.4038 65.1933 43.396 65.1933 42.8949C65.1927 40.5411 65.1923 38.1857 65.1923 35.8287Z" fill="white"/>
<path d="M49.8974 38.8786H47.5193C47.5106 38.7392 47.496 38.6057 47.496 38.4712C47.496 37.6913 47.5086 36.9174 47.496 36.1404C47.461 34.4482 48.2631 33.2648 49.7836 32.6575C51.8185 31.8465 53.8553 31.8689 55.7492 33.1118C56.7437 33.7639 57.2075 34.7465 57.2231 35.9328C57.2347 36.8988 57.2231 37.8658 57.2231 38.864H54.8401C54.8324 38.7032 54.8178 38.5316 54.8178 38.3591C54.8178 37.6328 54.8022 36.9066 54.8178 36.1814C54.8343 35.5215 54.5339 35.0789 53.9428 34.8527C52.9174 34.4437 51.7741 34.4468 50.751 34.8615C50.1744 35.0896 49.8828 35.5254 49.8935 36.1668C49.9081 37.0558 49.8974 37.9458 49.8974 38.8786Z" fill="white"/>
<path d="M46.3108 38.8691H43.9221C43.9143 38.7306 43.9007 38.5951 43.9007 38.4606C43.9007 37.6964 43.891 36.9322 43.9007 36.1679C43.9085 35.5294 43.6158 35.081 43.0393 34.8598C41.9553 34.4416 40.8547 34.4308 39.7765 34.8841C39.2369 35.1112 38.9579 35.5294 38.9764 36.1455C38.9997 36.9253 38.9851 37.6993 38.9851 38.4762C38.9851 38.6 38.9735 38.7238 38.9667 38.872H36.5993C36.5915 38.7267 36.5789 38.5912 36.5789 38.4557C36.5789 37.7169 36.5789 36.9789 36.5789 36.2401C36.5789 34.2905 37.5132 32.9794 39.3983 32.4384C41.1921 31.9276 42.9683 31.9705 44.6153 32.9657C45.7819 33.6686 46.3089 34.7486 46.3099 36.0997L46.3108 38.8691Z" fill="white"/>
<path d="M47.1965 46.3563C43.8842 46.3563 41.0492 45.2275 38.7975 42.7388C38.5661 42.4834 38.6594 41.881 38.9608 41.7338C39.0128 41.7213 39.0669 41.7204 39.1193 41.731C39.1716 41.7416 39.2211 41.7635 39.2642 41.7952C40.8887 43.0079 42.7194 43.7244 44.7086 44.0158C48.1804 44.5266 51.4267 43.9378 54.3579 41.9171C54.5125 41.8108 54.6622 41.5379 54.9024 41.7952C55.194 42.1091 55.2417 42.4532 55.0219 42.7086C53.8553 44.0577 52.4203 45.0062 50.7655 45.6388C49.6255 46.0805 48.4183 46.3232 47.1965 46.3563Z" fill="white"/>
<path d="M59.9268 37.8951C59.9268 36.2009 59.9346 34.5057 59.921 32.8115C59.921 32.5074 60.0085 32.408 60.3099 32.4216C60.8689 32.4401 61.4279 32.4392 61.9869 32.4216C62.2426 32.4148 62.3467 32.4791 62.3467 32.7589C62.3389 36.185 62.3389 39.612 62.3467 43.04C62.3467 43.3324 62.2329 43.4163 61.9578 43.4104C61.424 43.3977 60.8883 43.3899 60.3565 43.4104C60.025 43.425 59.9142 43.3129 59.9171 42.9786C59.9317 41.2834 59.9239 39.5892 59.9239 37.8941L59.9268 37.8951Z" fill="white"/>
<path d="M61.1722 28.0536C62.056 28.0741 62.6578 28.7282 62.6306 29.6445C62.6111 30.4399 61.9306 31.0716 61.1013 31.0521C60.9046 31.0474 60.7109 31.004 60.531 30.9242C60.3511 30.8444 60.1887 30.7299 60.053 30.5872C59.9172 30.4445 59.8108 30.2764 59.7399 30.0925C59.669 29.9086 59.6349 29.7125 59.6395 29.5153C59.6442 29.3182 59.6875 29.1239 59.7671 28.9436C59.8466 28.7632 59.9608 28.6004 60.1031 28.4643C60.2455 28.3282 60.4131 28.2215 60.5966 28.1504C60.78 28.0793 60.9756 28.0451 61.1722 28.0497V28.0536Z" fill="white"/>
</svg>
