<svg width="32" height="33" viewBox="0 0 32 33" fill="none" xmlns="http://www.w3.org/2000/svg">
<path d="M21.2714 16.4226C21.1393 16.3169 20.9807 16.2288 20.8398 16.1319C20.7429 16.0174 20.6195 15.9381 20.4698 15.8852C19.5272 15.3479 18.4614 15.0308 17.4043 15.0308C17.1841 15.0308 16.9815 15.1189 16.8229 15.2686L15.7482 16.3521L14.6648 15.2774C14.515 15.1189 14.3036 15.0396 14.0834 15.0396C13.0175 15.0396 11.934 15.3655 10.9915 15.9116C10.8593 15.9557 10.7536 16.035 10.6655 16.1319C10.5158 16.2288 10.3572 16.3169 10.2163 16.4226C9.11518 17.2858 8.26953 18.5455 8.26953 20.0166V22.5095C8.26953 25.2578 10.507 27.4865 13.2553 27.4865H18.2412C20.9895 27.4865 23.227 25.2578 23.227 22.5095V20.0166C23.2182 18.5455 22.3725 17.2858 21.2714 16.4226ZM17.6686 16.7837C18.109 16.819 18.5759 16.907 19.0251 17.0744L18.0738 18.6688L16.9286 17.5237L17.6686 16.7837ZM14.5767 17.5237L13.4315 18.6688L12.4802 17.0744C12.9294 16.9159 13.3963 16.819 13.8367 16.7837L14.5767 17.5237ZM21.5621 22.5095C21.5621 24.3593 20.091 25.8216 18.2412 25.8216H13.2553C11.3967 25.8216 9.9344 24.3593 9.9344 22.5095V20.0166C9.9344 19.259 10.366 18.5279 11.0531 17.9201L12.5506 20.4394C12.8237 20.9063 13.4668 20.9855 13.8543 20.6068L15.7482 18.6952L17.651 20.598C18.0386 20.9767 18.6728 20.8975 18.9547 20.4306L20.4522 17.9113C21.1393 18.5191 21.5709 19.2502 21.5709 20.0078V22.5095H21.5621Z" fill="#C4C4C4"/>
<path d="M15.7486 13.3747C17.8011 13.3747 19.4924 11.6922 19.4924 9.63974C19.4924 7.58728 17.8099 5.90479 15.7486 5.90479C13.6962 5.90479 12.0137 7.58728 12.0137 9.63974C12.0137 11.6922 13.6874 13.3747 15.7486 13.3747ZM15.7486 7.56085C16.9026 7.56085 17.8275 8.48578 17.8275 9.63974C17.8275 10.7937 16.9026 11.7186 15.7486 11.7186C14.5947 11.7186 13.6785 10.7937 13.6785 9.63974C13.6785 8.48578 14.5859 7.56085 15.7486 7.56085Z" fill="#C4C4C4"/>
<path d="M19.0687 21.6726H18.2406C17.1307 21.6726 17.1307 23.3375 18.2406 23.3375H19.0687C20.1698 23.3375 20.1698 21.6726 19.0687 21.6726Z" fill="#857F7F"/>
</svg>
