<svg width="11" height="13" viewBox="0 0 11 13" fill="none" xmlns="http://www.w3.org/2000/svg">
<path d="M6.375 7.59375C8.64844 7.59375 10.5 9.44531 10.5 11.7188C10.5 12.1406 10.1484 12.4688 9.75 12.4688H0.75C0.328125 12.4688 0 12.1406 0 11.7188C0 9.44531 1.82812 7.59375 4.125 7.59375H6.375ZM1.125 11.3438H9.35156C9.16406 9.86719 7.89844 8.71875 6.375 8.71875H4.125C2.57812 8.71875 1.3125 9.86719 1.125 11.3438ZM5.25 6.46875C3.58594 6.46875 2.25 5.13281 2.25 3.46875C2.25 1.82812 3.58594 0.46875 5.25 0.46875C6.89062 0.46875 8.25 1.82812 8.25 3.46875C8.25 5.13281 6.89062 6.46875 5.25 6.46875ZM5.25 1.59375C4.19531 1.59375 3.375 2.4375 3.375 3.46875C3.375 4.52344 4.19531 5.34375 5.25 5.34375C6.28125 5.34375 7.125 4.52344 7.125 3.46875C7.125 2.4375 6.28125 1.59375 5.25 1.59375Z" fill="url(#paint0_linear_76_100)"/>
<defs>
<linearGradient id="paint0_linear_76_100" x1="5.5" y1="-0.03125" x2="5.5" y2="11.9257" gradientUnits="userSpaceOnUse">
<stop stop-color="#40254F"/>
<stop offset="1" stop-color="#1A0E24"/>
</linearGradient>
</defs>
</svg>
