<svg width="32" height="33" viewBox="0 0 32 33" fill="none" xmlns="http://www.w3.org/2000/svg">
<path fillRule="evenodd" clipRule="evenodd" d="M7.33571 15.6217L12.8429 19.4359L10.5071 21.7787C10.4434 21.8397 10.3925 21.9128 10.3573 21.9937C10.3222 22.0747 10.3035 22.1618 10.3024 22.25C10.3012 22.3382 10.3177 22.4258 10.3508 22.5076C10.3839 22.5894 10.4329 22.6637 10.4951 22.7264C10.5572 22.789 10.6312 22.8386 10.7128 22.8723C10.7943 22.906 10.8818 22.9232 10.97 22.9227C11.0582 22.9223 11.1455 22.9042 11.2267 22.8697C11.3079 22.8351 11.3813 22.7848 11.4429 22.7215L13.9571 20.2073L15.6214 21.3644C15.7326 21.4415 15.8647 21.4828 16 21.4828C16.1353 21.4828 16.2674 21.4415 16.3786 21.3644L18.0429 20.2073L20.55 22.7215C20.6119 22.7834 20.6854 22.8325 20.7663 22.866C20.8472 22.8995 20.9339 22.9168 21.0214 22.9168C21.109 22.9168 21.1957 22.8995 21.2766 22.866C21.3575 22.8325 21.4309 22.7834 21.4929 22.7215C21.5548 22.6596 21.6039 22.5861 21.6374 22.5052C21.6709 22.4243 21.6881 22.3377 21.6881 22.2501C21.6881 22.1626 21.6709 22.0759 21.6374 21.995C21.6039 21.9141 21.5548 21.8406 21.4929 21.7787L19.1571 19.4359L24.6643 15.6217V22.9644C24.6662 23.2541 24.6106 23.5414 24.5008 23.8096C24.391 24.0777 24.2291 24.3215 24.0246 24.5267C23.82 24.7319 23.5768 24.8946 23.309 25.0052C23.0412 25.1159 22.7541 25.1724 22.4643 25.1715H9.57143C9.28165 25.1724 8.99456 25.1159 8.72675 25.0052C8.45894 24.8946 8.21572 24.7319 8.01114 24.5267C7.80657 24.3215 7.64471 24.0777 7.5349 23.8096C7.4251 23.5414 7.36954 23.2541 7.37143 22.9644L7.33571 15.6217ZM12.4286 13.686C12.2634 13.7031 12.1103 13.7809 11.9991 13.9042C11.8879 14.0276 11.8263 14.1878 11.8263 14.3539C11.8263 14.52 11.8879 14.6802 11.9991 14.8035C12.1103 14.9269 12.2634 15.0046 12.4286 15.0217H19.5714C19.6649 15.0314 19.7594 15.0213 19.8488 14.9922C19.9382 14.963 20.0204 14.9154 20.0902 14.8525C20.1601 14.7895 20.2159 14.7126 20.2541 14.6267C20.2923 14.5408 20.312 14.4479 20.312 14.3539C20.312 14.2599 20.2923 14.1669 20.2541 14.081C20.2159 13.9951 20.1601 13.9182 20.0902 13.8553C20.0204 13.7923 19.9382 13.7447 19.8488 13.7156C19.7594 13.6864 19.6649 13.6763 19.5714 13.686H12.4286ZM22.4286 13.3789L24.1143 14.3932L22.4286 15.5646V13.3789ZM9.57143 13.3789V15.5217L7.9 14.3932L9.57143 13.3789ZM12.3429 10.0718C12.1629 10.0832 11.9948 10.1656 11.8756 10.3009C11.7564 10.4362 11.6958 10.6133 11.7071 10.7932C11.7185 10.9732 11.8009 11.1413 11.9362 11.2605C12.0715 11.3797 12.2486 11.4403 12.4286 11.4289H16C16.18 11.4289 16.3526 11.3574 16.4798 11.2302C16.6071 11.1029 16.6786 10.9303 16.6786 10.7504C16.6786 10.5704 16.6071 10.3978 16.4798 10.2706C16.3526 10.1433 16.18 10.0718 16 10.0718H12.3429ZM18.8143 8.99328L20.3214 10.7861H18.8143V8.99328ZM11.7143 7.83617H17.5071V11.5004C17.5071 11.6784 17.5779 11.8492 17.7038 11.9751C17.8297 12.101 18.0005 12.1718 18.1786 12.1718H21.1V16.5002L16 20.0002L10.9214 16.5002V8.64329C10.9209 8.54206 10.9409 8.44178 10.9802 8.34849C11.0195 8.2552 11.0772 8.17082 11.15 8.10045C11.218 8.01663 11.3041 7.94931 11.4018 7.90353C11.4995 7.85776 11.6064 7.83473 11.7143 7.83617ZM18.1429 6.50048H11.7143C11.146 6.50048 10.6009 6.72624 10.1991 7.1281C9.79719 7.52995 9.57143 8.07498 9.57143 8.64329V11.8575L6.36429 13.786C6.25835 13.8404 6.16878 13.922 6.10476 14.0224C6.04075 14.1228 6.00459 14.2384 6 14.3574V22.9644C6.00941 23.9053 6.38984 24.8046 7.05859 25.4666C7.72735 26.1287 8.63038 26.5 9.57143 26.5H22.5C23.4286 26.4815 24.3135 26.1019 24.9669 25.4418C25.6203 24.7818 25.9909 23.8931 26 22.9644V14.3574C25.9993 14.2293 25.9619 14.104 25.8923 13.9965C25.8227 13.8889 25.7237 13.8035 25.6071 13.7503L22.4286 11.8218V11.6718C22.4561 11.5639 22.4554 11.4508 22.4267 11.3432C22.3979 11.2356 22.342 11.1373 22.2643 11.0575L18.6929 6.77191C18.6311 6.68443 18.5484 6.61378 18.4523 6.56638C18.3563 6.51898 18.2499 6.49633 18.1429 6.50048Z" fill="#C4C4C4"/>
</svg>
